<?xml version="1.0" encoding="utf-8" standalone="no"?>
<!DOCTYPE svg PUBLIC "-//W3C//DTD SVG 1.1//EN"
  "http://www.w3.org/Graphics/SVG/1.1/DTD/svg11.dtd">
<svg xmlns:xlink="http://www.w3.org/1999/xlink" width="790.621417pt" height="543.8475pt" viewBox="0 0 790.621417 543.8475" xmlns="http://www.w3.org/2000/svg" version="1.1">
 <metadata>
  <rdf:RDF xmlns:dc="http://purl.org/dc/elements/1.1/" xmlns:cc="http://creativecommons.org/ns#" xmlns:rdf="http://www.w3.org/1999/02/22-rdf-syntax-ns#">
   <cc:Work>
    <dc:type rdf:resource="http://purl.org/dc/dcmitype/StillImage"/>
    <dc:date>2026-07-10T15:28:34.111042</dc:date>
    <dc:format>image/svg+xml</dc:format>
    <dc:creator>
     <cc:Agent>
      <dc:title>Matplotlib v3.10.8, https://matplotlib.org/</dc:title>
     </cc:Agent>
    </dc:creator>
   </cc:Work>
  </rdf:RDF>
 </metadata>
 <defs>
  <style type="text/css">*{stroke-linejoin: round; stroke-linecap: butt}</style>
 </defs>
 <g id="figure_1">
  <g id="patch_1">
   <path d="M 0 543.8475 
L 790.621417 543.8475 
L 790.621417 0 
L 0 0 
z
" style="fill: #ffffff"/>
  </g>
  <g id="axes_1">
   <g id="patch_2">
    <path d="M 68.86 488.0675 
L 783.421417 488.0675 
L 783.421417 53.59125 
L 68.86 53.59125 
z
" style="fill: #ffffff"/>
   </g>
   <g id="matplotlib.axis_1">
    <g id="xtick_1">
     <g id="line2d_1">
      <defs>
       <path id="me983166139" d="M 0 0 
L 0 5 
" style="stroke: #000000"/>
      </defs>
      <g>
       <use xlink:href="#me983166139" x="95.522739" y="488.0675" style="stroke: #000000"/>
      </g>
     </g>
     <g id="text_1">
      <!-- $-3\kappa\prime$ -->
      <g transform="translate(83.042739 505.446094) scale(0.13 -0.13)">
       <defs>
        <path id="STIXGeneral-Regular-2212" d="M 3974 1408 
L 410 1408 
L 410 1830 
L 3974 1830 
L 3974 1408 
z
" transform="scale(0.015625)"/>
        <path id="STIXGeneral-Regular-33" d="M 390 3264 
L 288 3290 
Q 435 3770 748 4048 
Q 1062 4326 1542 4326 
Q 1990 4326 2265 4083 
Q 2541 3840 2541 3450 
Q 2541 2925 1946 2566 
Q 2298 2413 2477 2227 
Q 2758 1914 2758 1402 
Q 2758 890 2464 506 
Q 2246 211 1840 60 
Q 1434 -90 979 -90 
Q 262 -90 262 275 
Q 262 378 339 442 
Q 416 506 525 506 
Q 685 506 915 339 
Q 1197 141 1466 141 
Q 1818 141 2058 425 
Q 2298 710 2298 1120 
Q 2298 1856 1632 2048 
Q 1434 2112 979 2112 
L 979 2202 
Q 1338 2323 1517 2432 
Q 2035 2726 2035 3290 
Q 2035 3610 1852 3776 
Q 1670 3942 1344 3942 
Q 768 3942 390 3264 
z
" transform="scale(0.015625)"/>
        <path id="STIXGeneral-Italic-3ba" d="M 979 1440 
L 998 1446 
Q 1850 2541 2464 2790 
Q 2547 2822 2630 2822 
Q 2797 2822 2886 2736 
Q 2976 2650 2976 2522 
Q 2976 2387 2893 2307 
Q 2810 2227 2682 2227 
Q 2605 2227 2502 2288 
Q 2400 2349 2336 2349 
Q 2170 2349 1990 2205 
Q 1811 2061 1414 1645 
L 2042 544 
Q 2202 262 2310 182 
Q 2419 102 2624 102 
L 2624 0 
Q 2374 -83 2182 -83 
Q 1786 -83 1555 326 
L 960 1350 
L 576 0 
L 90 0 
L 640 1978 
Q 730 2317 730 2406 
Q 730 2560 518 2560 
L 339 2560 
L 339 2650 
Q 678 2694 1306 2822 
L 1325 2803 
L 979 1440 
z
" transform="scale(0.015625)"/>
        <path id="STIXGeneral-Regular-2032" d="M 480 2630 
L 909 4045 
Q 934 4141 960 4195 
Q 986 4250 1043 4294 
Q 1101 4339 1190 4339 
Q 1274 4339 1322 4278 
Q 1370 4218 1370 4128 
Q 1370 4058 1280 3878 
L 602 2573 
L 480 2630 
z
" transform="scale(0.015625)"/>
       </defs>
       <use xlink:href="#STIXGeneral-Regular-2212" transform="translate(0 0.203125)"/>
       <use xlink:href="#STIXGeneral-Regular-33" transform="translate(68.499985 0.203125)"/>
       <use xlink:href="#STIXGeneral-Italic-3ba" transform="translate(118.499969 0.203125)"/>
       <use xlink:href="#STIXGeneral-Regular-2032" transform="translate(162.899963 0.203125)"/>
      </g>
     </g>
    </g>
    <g id="xtick_2">
     <g id="line2d_2">
      <g>
       <use xlink:href="#me983166139" x="202.173697" y="488.0675" style="stroke: #000000"/>
      </g>
     </g>
     <g id="text_2">
      <!-- $-2\kappa\prime$ -->
      <g transform="translate(189.693697 505.446094) scale(0.13 -0.13)">
       <defs>
        <path id="STIXGeneral-Regular-32" d="M 3034 877 
L 2688 0 
L 186 0 
L 186 77 
L 1325 1286 
Q 1773 1754 1965 2144 
Q 2157 2534 2157 2950 
Q 2157 3379 1920 3616 
Q 1683 3853 1267 3853 
Q 922 3853 720 3673 
Q 518 3494 326 3021 
L 192 3053 
Q 301 3648 630 3987 
Q 960 4326 1523 4326 
Q 2054 4326 2380 4006 
Q 2707 3686 2707 3200 
Q 2707 2477 1888 1613 
L 832 486 
L 2330 486 
Q 2541 486 2665 569 
Q 2790 653 2944 915 
L 3034 877 
z
" transform="scale(0.015625)"/>
       </defs>
       <use xlink:href="#STIXGeneral-Regular-2212" transform="translate(0 0.203125)"/>
       <use xlink:href="#STIXGeneral-Regular-32" transform="translate(68.499985 0.203125)"/>
       <use xlink:href="#STIXGeneral-Italic-3ba" transform="translate(118.499969 0.203125)"/>
       <use xlink:href="#STIXGeneral-Regular-2032" transform="translate(162.899963 0.203125)"/>
      </g>
     </g>
    </g>
    <g id="xtick_3">
     <g id="line2d_3">
      <g>
       <use xlink:href="#me983166139" x="308.824655" y="488.0675" style="stroke: #000000"/>
      </g>
     </g>
     <g id="text_3">
      <!-- $-\kappa\prime$ -->
      <g transform="translate(299.594655 505.446094) scale(0.13 -0.13)">
       <use xlink:href="#STIXGeneral-Regular-2212" transform="translate(0 0.203125)"/>
       <use xlink:href="#STIXGeneral-Italic-3ba" transform="translate(68.499985 0.203125)"/>
       <use xlink:href="#STIXGeneral-Regular-2032" transform="translate(112.899979 0.203125)"/>
      </g>
     </g>
    </g>
    <g id="xtick_4">
     <g id="line2d_4">
      <g>
       <use xlink:href="#me983166139" x="415.475612" y="488.0675" style="stroke: #000000"/>
      </g>
     </g>
     <g id="text_4">
      <!-- 0 -->
      <g transform="translate(412.225612 505.446094) scale(0.13 -0.13)">
       <defs>
        <path id="STIXGeneral-Regular-30" d="M 3046 2112 
Q 3046 1683 2963 1302 
Q 2880 922 2717 602 
Q 2554 282 2266 96 
Q 1978 -90 1600 -90 
Q 1210 -90 915 108 
Q 621 307 461 640 
Q 301 973 227 1350 
Q 154 1728 154 2150 
Q 154 2746 301 3222 
Q 448 3699 790 4012 
Q 1133 4326 1626 4326 
Q 2253 4326 2649 3712 
Q 3046 3098 3046 2112 
z
M 2432 2080 
Q 2432 3091 2217 3625 
Q 2003 4160 1587 4160 
Q 1190 4160 979 3622 
Q 768 3085 768 2106 
Q 768 1120 979 598 
Q 1190 77 1600 77 
Q 2003 77 2217 598 
Q 2432 1120 2432 2080 
z
" transform="scale(0.015625)"/>
       </defs>
       <use xlink:href="#STIXGeneral-Regular-30"/>
      </g>
     </g>
    </g>
    <g id="xtick_5">
     <g id="line2d_5">
      <g>
       <use xlink:href="#me983166139" x="522.12657" y="488.0675" style="stroke: #000000"/>
      </g>
     </g>
     <g id="text_5">
      <!-- $\kappa\prime$ -->
      <g transform="translate(517.31657 505.446094) scale(0.13 -0.13)">
       <use xlink:href="#STIXGeneral-Italic-3ba" transform="translate(0 0.203125)"/>
       <use xlink:href="#STIXGeneral-Regular-2032" transform="translate(44.399994 0.203125)"/>
      </g>
     </g>
    </g>
    <g id="xtick_6">
     <g id="line2d_6">
      <g>
       <use xlink:href="#me983166139" x="628.777528" y="488.0675" style="stroke: #000000"/>
      </g>
     </g>
     <g id="text_6">
      <!-- $2\kappa\prime$ -->
      <g transform="translate(620.717528 505.446094) scale(0.13 -0.13)">
       <use xlink:href="#STIXGeneral-Regular-32" transform="translate(0 0.203125)"/>
       <use xlink:href="#STIXGeneral-Italic-3ba" transform="translate(49.999985 0.203125)"/>
       <use xlink:href="#STIXGeneral-Regular-2032" transform="translate(94.399979 0.203125)"/>
      </g>
     </g>
    </g>
    <g id="xtick_7">
     <g id="line2d_7">
      <g>
       <use xlink:href="#me983166139" x="735.428486" y="488.0675" style="stroke: #000000"/>
      </g>
     </g>
     <g id="text_7">
      <!-- $3\kappa\prime$ -->
      <g transform="translate(727.368486 505.446094) scale(0.13 -0.13)">
       <use xlink:href="#STIXGeneral-Regular-33" transform="translate(0 0.203125)"/>
       <use xlink:href="#STIXGeneral-Italic-3ba" transform="translate(49.999985 0.203125)"/>
       <use xlink:href="#STIXGeneral-Regular-2032" transform="translate(94.399979 0.203125)"/>
      </g>
     </g>
    </g>
    <g id="text_8">
     <!-- detuning $\delta$ -->
     <g transform="translate(388.250708 532.6875) scale(0.18 -0.18)">
      <defs>
       <path id="STIXGeneral-Regular-64" d="M 3142 269 
L 2202 -64 
L 2176 -45 
L 2176 365 
Q 1869 -64 1357 -64 
Q 826 -64 499 317 
Q 173 698 173 1312 
Q 173 1990 563 2467 
Q 954 2944 1504 2944 
Q 1850 2944 2176 2669 
L 2176 3667 
Q 2176 3866 2118 3930 
Q 2061 3994 1882 3994 
Q 1792 3994 1741 3987 
L 1741 4090 
Q 2323 4243 2682 4371 
L 2714 4358 
L 2714 730 
Q 2714 506 2768 435 
Q 2822 365 2995 365 
Q 3034 365 3142 371 
L 3142 269 
z
M 2176 653 
L 2176 2125 
Q 2176 2381 1981 2573 
Q 1786 2765 1523 2765 
Q 1158 2765 940 2438 
Q 723 2112 723 1568 
Q 723 979 963 624 
Q 1203 269 1606 269 
Q 1907 269 2080 474 
Q 2176 582 2176 653 
z
" transform="scale(0.015625)"/>
       <path id="STIXGeneral-Regular-65" d="M 2611 1050 
L 2714 1005 
Q 2330 -64 1376 -64 
Q 813 -64 486 329 
Q 160 723 160 1389 
Q 160 2074 525 2509 
Q 890 2944 1485 2944 
Q 2061 2944 2374 2502 
Q 2560 2246 2592 1773 
L 621 1773 
Q 646 1370 700 1158 
Q 755 947 915 730 
Q 1184 378 1626 378 
Q 1939 378 2153 531 
Q 2368 685 2611 1050 
z
M 634 1978 
L 1939 1978 
Q 1882 2381 1750 2547 
Q 1619 2714 1312 2714 
Q 1043 2714 864 2525 
Q 685 2336 634 1978 
z
" transform="scale(0.015625)"/>
       <path id="STIXGeneral-Regular-74" d="M 1702 493 
L 1786 422 
Q 1478 -64 1011 -64 
Q 448 -64 448 749 
L 448 2675 
L 109 2675 
Q 83 2694 83 2720 
Q 83 2771 192 2842 
Q 435 2982 813 3526 
Q 826 3546 874 3606 
Q 922 3667 941 3706 
Q 986 3706 986 3622 
L 986 2880 
L 1632 2880 
L 1632 2675 
L 986 2675 
L 986 845 
Q 986 538 1062 403 
Q 1139 269 1318 269 
Q 1510 269 1702 493 
z
" transform="scale(0.015625)"/>
       <path id="STIXGeneral-Regular-75" d="M 3072 320 
L 3072 230 
Q 2573 96 2195 -58 
L 2163 -38 
L 2163 486 
L 2150 486 
Q 1747 -64 1235 -64 
Q 870 -64 662 160 
Q 454 384 454 755 
L 454 2362 
Q 454 2598 371 2688 
Q 288 2778 58 2790 
L 58 2880 
L 992 2880 
L 992 813 
Q 992 595 1123 451 
Q 1254 307 1446 307 
Q 1760 307 1984 506 
Q 2067 582 2099 649 
Q 2131 717 2131 877 
L 2131 2355 
Q 2131 2605 2041 2678 
Q 1952 2752 1658 2771 
L 1658 2880 
L 2669 2880 
L 2669 685 
Q 2669 461 2742 390 
Q 2816 320 3034 320 
L 3072 320 
z
" transform="scale(0.015625)"/>
       <path id="STIXGeneral-Regular-6e" d="M 3104 0 
L 1773 0 
L 1779 96 
Q 2016 115 2096 233 
Q 2176 352 2176 672 
L 2176 1946 
Q 2176 2592 1709 2592 
Q 1549 2592 1408 2515 
Q 1267 2438 1050 2227 
L 1050 461 
Q 1050 269 1136 192 
Q 1222 115 1466 96 
L 1466 0 
L 115 0 
L 115 96 
Q 358 115 435 214 
Q 512 314 512 602 
L 512 2157 
Q 512 2394 467 2483 
Q 422 2573 288 2573 
Q 160 2573 102 2547 
L 102 2656 
Q 550 2784 979 2944 
L 1030 2925 
L 1030 2426 
L 1037 2426 
Q 1491 2944 1958 2944 
Q 2323 2944 2518 2688 
Q 2714 2432 2714 1958 
L 2714 544 
Q 2714 288 2790 205 
Q 2867 122 3104 96 
L 3104 0 
z
" transform="scale(0.015625)"/>
       <path id="STIXGeneral-Regular-69" d="M 1152 4045 
Q 1152 3904 1056 3811 
Q 960 3718 819 3718 
Q 685 3718 592 3811 
Q 499 3904 499 4045 
Q 499 4179 595 4275 
Q 691 4371 826 4371 
Q 966 4371 1059 4275 
Q 1152 4179 1152 4045 
z
M 1619 0 
L 102 0 
L 102 96 
Q 435 115 521 211 
Q 608 307 608 666 
L 608 2118 
Q 608 2342 563 2432 
Q 518 2522 397 2522 
Q 243 2522 128 2490 
L 128 2592 
L 1120 2944 
L 1146 2918 
L 1146 672 
Q 1146 314 1226 218 
Q 1306 122 1619 96 
L 1619 0 
z
" transform="scale(0.015625)"/>
       <path id="STIXGeneral-Regular-67" d="M 3008 2483 
L 2477 2483 
Q 2598 2208 2598 1946 
Q 2598 1453 2265 1203 
Q 1933 954 1600 954 
Q 1530 954 1357 973 
L 1235 986 
Q 1107 947 979 812 
Q 851 678 851 582 
Q 851 435 1350 410 
L 2176 371 
Q 2528 358 2739 172 
Q 2950 -13 2950 -314 
Q 2950 -685 2566 -986 
Q 2035 -1395 1286 -1395 
Q 826 -1395 502 -1212 
Q 179 -1030 179 -774 
Q 179 -595 320 -419 
Q 461 -243 806 6 
Q 602 102 534 172 
Q 467 243 467 346 
Q 467 531 762 787 
Q 909 915 1037 1043 
Q 717 1203 579 1401 
Q 442 1600 442 1901 
Q 442 2336 752 2640 
Q 1062 2944 1510 2944 
Q 1766 2944 2022 2848 
L 2163 2797 
Q 2349 2733 2515 2733 
L 3008 2733 
L 3008 2483 
z
M 973 2163 
L 973 2144 
Q 973 1683 1155 1398 
Q 1338 1114 1632 1114 
Q 1850 1114 1978 1270 
Q 2106 1427 2106 1690 
Q 2106 2112 1914 2464 
Q 1754 2765 1446 2765 
Q 1222 2765 1097 2605 
Q 973 2445 973 2163 
z
M 2771 -410 
Q 2771 -230 2595 -163 
Q 2419 -96 1978 -96 
Q 1344 -96 941 -13 
Q 749 -243 688 -348 
Q 627 -454 627 -563 
Q 627 -774 880 -902 
Q 1133 -1030 1555 -1030 
Q 2099 -1030 2435 -860 
Q 2771 -691 2771 -410 
z
" transform="scale(0.015625)"/>
       <path id="STIXGeneral-Regular-20" transform="scale(0.015625)"/>
       <path id="STIXGeneral-Italic-3b4" d="M 2944 3866 
Q 2944 3744 2883 3651 
Q 2822 3558 2694 3558 
Q 2579 3558 2508 3606 
Q 2438 3654 2403 3721 
Q 2368 3789 2323 3856 
Q 2278 3923 2179 3971 
Q 2080 4019 1920 4019 
Q 1715 4019 1516 3916 
Q 1318 3814 1318 3648 
Q 1318 3482 1484 3328 
Q 1651 3174 1942 2985 
Q 2234 2797 2381 2656 
Q 2605 2445 2701 2249 
Q 2797 2054 2797 1709 
Q 2797 1037 2313 483 
Q 1830 -70 1101 -70 
Q 646 -70 400 166 
Q 154 403 154 838 
Q 154 1453 640 1981 
Q 1126 2509 1741 2566 
Q 1690 2618 1526 2771 
Q 1363 2925 1299 2998 
Q 1235 3072 1164 3203 
Q 1094 3334 1094 3456 
Q 1094 3744 1286 3939 
Q 1478 4134 1712 4204 
Q 1946 4275 2176 4275 
Q 2458 4275 2701 4169 
Q 2944 4064 2944 3866 
z
M 2278 1702 
Q 2278 2086 2156 2259 
Q 2035 2432 1850 2432 
Q 1427 2432 1059 1869 
Q 691 1306 691 646 
Q 691 384 828 224 
Q 966 64 1190 64 
Q 1466 64 1728 371 
Q 1990 678 2134 1056 
Q 2278 1434 2278 1702 
z
" transform="scale(0.015625)"/>
      </defs>
      <use xlink:href="#STIXGeneral-Regular-64" transform="translate(0 0.703125)"/>
      <use xlink:href="#STIXGeneral-Regular-65" transform="translate(49.999985 0.703125)"/>
      <use xlink:href="#STIXGeneral-Regular-74" transform="translate(94.399979 0.703125)"/>
      <use xlink:href="#STIXGeneral-Regular-75" transform="translate(122.199966 0.703125)"/>
      <use xlink:href="#STIXGeneral-Regular-6e" transform="translate(172.199951 0.703125)"/>
      <use xlink:href="#STIXGeneral-Regular-69" transform="translate(222.199936 0.703125)"/>
      <use xlink:href="#STIXGeneral-Regular-6e" transform="translate(249.999924 0.703125)"/>
      <use xlink:href="#STIXGeneral-Regular-67" transform="translate(299.999908 0.703125)"/>
      <use xlink:href="#STIXGeneral-Regular-20" transform="translate(349.999893 0.703125)"/>
      <use xlink:href="#STIXGeneral-Italic-3b4" transform="translate(374.999878 0.703125)"/>
     </g>
    </g>
   </g>
   <g id="matplotlib.axis_2">
    <g id="ytick_1">
     <g id="line2d_8">
      <defs>
       <path id="m2f1dd18513" d="M 0 0 
L -5 0 
" style="stroke: #000000"/>
      </defs>
      <g>
       <use xlink:href="#m2f1dd18513" x="68.86" y="465.370979" style="stroke: #000000"/>
      </g>
     </g>
     <g id="text_9">
      <!-- $-3\kappa\prime$ -->
      <g transform="translate(35.4 469.810276) scale(0.13 -0.13)">
       <use xlink:href="#STIXGeneral-Regular-2212" transform="translate(0 0.203125)"/>
       <use xlink:href="#STIXGeneral-Regular-33" transform="translate(68.499985 0.203125)"/>
       <use xlink:href="#STIXGeneral-Italic-3ba" transform="translate(118.499969 0.203125)"/>
       <use xlink:href="#STIXGeneral-Regular-2032" transform="translate(162.899963 0.203125)"/>
      </g>
     </g>
    </g>
    <g id="ytick_2">
     <g id="line2d_9">
      <g>
       <use xlink:href="#m2f1dd18513" x="68.86" y="400.523778" style="stroke: #000000"/>
      </g>
     </g>
     <g id="text_10">
      <!-- $-2\kappa\prime$ -->
      <g transform="translate(35.4 404.963075) scale(0.13 -0.13)">
       <use xlink:href="#STIXGeneral-Regular-2212" transform="translate(0 0.203125)"/>
       <use xlink:href="#STIXGeneral-Regular-32" transform="translate(68.499985 0.203125)"/>
       <use xlink:href="#STIXGeneral-Italic-3ba" transform="translate(118.499969 0.203125)"/>
       <use xlink:href="#STIXGeneral-Regular-2032" transform="translate(162.899963 0.203125)"/>
      </g>
     </g>
    </g>
    <g id="ytick_3">
     <g id="line2d_10">
      <g>
       <use xlink:href="#m2f1dd18513" x="68.86" y="335.676576" style="stroke: #000000"/>
      </g>
     </g>
     <g id="text_11">
      <!-- $-\kappa\prime$ -->
      <g transform="translate(41.9 340.115873) scale(0.13 -0.13)">
       <use xlink:href="#STIXGeneral-Regular-2212" transform="translate(0 0.203125)"/>
       <use xlink:href="#STIXGeneral-Italic-3ba" transform="translate(68.499985 0.203125)"/>
       <use xlink:href="#STIXGeneral-Regular-2032" transform="translate(112.899979 0.203125)"/>
      </g>
     </g>
    </g>
    <g id="ytick_4">
     <g id="line2d_11">
      <g>
       <use xlink:href="#m2f1dd18513" x="68.86" y="270.829375" style="stroke: #000000"/>
      </g>
     </g>
     <g id="text_12">
      <!-- 0 -->
      <g transform="translate(53.86 275.268672) scale(0.13 -0.13)">
       <use xlink:href="#STIXGeneral-Regular-30"/>
      </g>
     </g>
    </g>
    <g id="ytick_5">
     <g id="line2d_12">
      <g>
       <use xlink:href="#m2f1dd18513" x="68.86" y="205.982174" style="stroke: #000000"/>
      </g>
     </g>
     <g id="text_13">
      <!-- $\kappa\prime$ -->
      <g transform="translate(50.74 210.42147) scale(0.13 -0.13)">
       <use xlink:href="#STIXGeneral-Italic-3ba" transform="translate(0 0.203125)"/>
       <use xlink:href="#STIXGeneral-Regular-2032" transform="translate(44.399994 0.203125)"/>
      </g>
     </g>
    </g>
    <g id="ytick_6">
     <g id="line2d_13">
      <g>
       <use xlink:href="#m2f1dd18513" x="68.86" y="141.134972" style="stroke: #000000"/>
      </g>
     </g>
     <g id="text_14">
      <!-- $2\kappa\prime$ -->
      <g transform="translate(44.24 145.574269) scale(0.13 -0.13)">
       <use xlink:href="#STIXGeneral-Regular-32" transform="translate(0 0.203125)"/>
       <use xlink:href="#STIXGeneral-Italic-3ba" transform="translate(49.999985 0.203125)"/>
       <use xlink:href="#STIXGeneral-Regular-2032" transform="translate(94.399979 0.203125)"/>
      </g>
     </g>
    </g>
    <g id="ytick_7">
     <g id="line2d_14">
      <g>
       <use xlink:href="#m2f1dd18513" x="68.86" y="76.287771" style="stroke: #000000"/>
      </g>
     </g>
     <g id="text_15">
      <!-- $3\kappa\prime$ -->
      <g transform="translate(44.24 80.727067) scale(0.13 -0.13)">
       <use xlink:href="#STIXGeneral-Regular-33" transform="translate(0 0.203125)"/>
       <use xlink:href="#STIXGeneral-Italic-3ba" transform="translate(49.999985 0.203125)"/>
       <use xlink:href="#STIXGeneral-Regular-2032" transform="translate(94.399979 0.203125)"/>
      </g>
     </g>
    </g>
    <g id="text_16">
     <!-- $\omega^2-\bar{\omega}^{\,2}$ -->
     <g transform="translate(19.493437 300.529375) rotate(-90) scale(0.18 -0.18)">
      <defs>
       <path id="STIXGeneral-Italic-3c9" d="M 3021 2810 
L 3136 2810 
Q 3648 2810 3898 2598 
Q 4186 2355 4186 1824 
Q 4186 1357 3910 838 
Q 3667 390 3334 160 
Q 3002 -70 2669 -70 
Q 2438 -70 2281 3 
Q 2125 77 2064 160 
Q 2003 243 1939 384 
Q 1741 147 1533 38 
Q 1325 -70 998 -70 
Q 659 -70 416 160 
Q 173 390 173 832 
Q 173 1101 237 1350 
Q 403 1965 883 2387 
Q 1363 2810 2010 2810 
L 2125 2810 
L 2125 2707 
Q 1606 2707 1267 2291 
Q 1024 1990 867 1526 
Q 710 1062 710 666 
Q 710 64 1075 64 
Q 1286 64 1523 285 
Q 1760 506 1856 774 
Q 1837 915 1837 1101 
Q 1837 1363 1914 1651 
Q 1984 1920 2125 2105 
Q 2266 2291 2432 2291 
Q 2656 2291 2656 1997 
Q 2656 1530 2387 1062 
Q 2272 864 2189 736 
Q 2176 691 2176 602 
Q 2176 384 2288 224 
Q 2400 64 2592 64 
Q 3040 64 3341 627 
Q 3482 896 3565 1270 
Q 3648 1645 3648 1971 
Q 3648 2240 3616 2362 
Q 3565 2566 3411 2636 
Q 3258 2707 3021 2707 
L 3021 2810 
z
" transform="scale(0.015625)"/>
       <path id="STIXGeneral-Regular-304" d="M -474 3501 
L -2464 3501 
L -2464 3846 
L -474 3846 
L -474 3501 
z
" transform="scale(0.015625)"/>
      </defs>
      <use xlink:href="#STIXGeneral-Italic-3c9" transform="translate(0 0.409375)"/>
      <use xlink:href="#STIXGeneral-Regular-32" transform="translate(74.733741 35.684375) scale(0.7)"/>
      <use xlink:href="#STIXGeneral-Regular-2212" transform="translate(128.583102 0.409375)"/>
      <use xlink:href="#STIXGeneral-Regular-304" transform="translate(277.17308 2.1125)"/>
      <use xlink:href="#STIXGeneral-Italic-3c9" transform="translate(211.523083 0.409375)"/>
      <use xlink:href="#STIXGeneral-Regular-32" transform="translate(290.089854 35.684375) scale(0.7)"/>
     </g>
    </g>
   </g>
   <g id="line2d_15">
    <path d="M 84.857644 59.602618 
L 121.750636 80.826615 
L 153.913757 99.07885 
L 181.347008 114.397685 
L 204.996362 127.35965 
L 225.807793 138.523627 
L 244.727277 148.420846 
L 260.808837 156.59661 
L 275.944424 164.045062 
L 289.188062 170.323731 
L 301.485726 175.913796 
L 312.837416 180.830306 
L 323.243132 185.0963 
L 332.702874 188.743351 
L 341.216641 191.811353 
L 349.730408 194.650799 
L 357.298202 196.961517 
L 364.865995 199.051299 
L 372.433788 200.900334 
L 379.055607 202.305366 
L 385.677426 203.49862 
L 392.299246 204.468669 
L 398.921065 205.205616 
L 405.542884 205.701546 
L 412.164703 205.950933 
L 418.786522 205.950933 
L 425.408341 205.701546 
L 432.03016 205.205616 
L 438.651979 204.468669 
L 445.273799 203.49862 
L 451.895618 202.305366 
L 458.517437 200.900334 
L 466.08523 199.051299 
L 473.653023 196.961517 
L 481.220817 194.650799 
L 489.734584 191.811353 
L 498.248351 188.743351 
L 507.708093 185.0963 
L 518.113809 180.830306 
L 529.465499 175.913796 
L 541.763163 170.323731 
L 555.006801 164.045062 
L 569.196413 157.069662 
L 585.277974 148.908305 
L 603.251483 139.525131 
L 623.116941 128.896734 
L 645.82032 116.488474 
L 671.361623 102.269468 
L 700.686822 85.684002 
L 734.741891 66.160524 
L 746.093581 59.602618 
L 746.093581 59.602618 
" clip-path="url(#p84a7a54d99)" style="fill: none; stroke: #1748d4; stroke-width: 2.2; stroke-linecap: square"/>
   </g>
   <g id="line2d_16">
    <path d="M 84.857644 482.056132 
L 121.750636 460.832135 
L 153.913757 442.5799 
L 181.347008 427.261065 
L 204.996362 414.2991 
L 225.807793 403.135123 
L 244.727277 393.237904 
L 260.808837 385.06214 
L 275.944424 377.613688 
L 289.188062 371.335019 
L 301.485726 365.744954 
L 312.837416 360.828444 
L 323.243132 356.56245 
L 332.702874 352.915399 
L 341.216641 349.847397 
L 349.730408 347.007951 
L 357.298202 344.697233 
L 364.865995 342.607451 
L 372.433788 340.758416 
L 379.055607 339.353384 
L 385.677426 338.16013 
L 392.299246 337.190081 
L 398.921065 336.453134 
L 405.542884 335.957204 
L 412.164703 335.707817 
L 418.786522 335.707817 
L 425.408341 335.957204 
L 432.03016 336.453134 
L 438.651979 337.190081 
L 445.273799 338.16013 
L 451.895618 339.353384 
L 458.517437 340.758416 
L 466.08523 342.607451 
L 473.653023 344.697233 
L 481.220817 347.007951 
L 489.734584 349.847397 
L 498.248351 352.915399 
L 507.708093 356.56245 
L 518.113809 360.828444 
L 529.465499 365.744954 
L 541.763163 371.335019 
L 555.006801 377.613688 
L 569.196413 384.589088 
L 585.277974 392.750445 
L 603.251483 402.133619 
L 623.116941 412.762016 
L 645.82032 425.170276 
L 671.361623 439.389282 
L 700.686822 455.974748 
L 734.741891 475.498226 
L 746.093581 482.056132 
L 746.093581 482.056132 
" clip-path="url(#p84a7a54d99)" style="fill: none; stroke: #1748d4; stroke-width: 2.2; stroke-linecap: square"/>
   </g>
   <g id="line2d_17">
    <path d="M 84.857644 471.8557 
L 746.093581 69.80305 
L 746.093581 69.80305 
" clip-path="url(#p84a7a54d99)" style="fill: none; stroke-dasharray: 6.25,6.25; stroke-dashoffset: 0; stroke: #666666; stroke-width: 1.25"/>
   </g>
   <g id="line2d_18">
    <path d="M 84.857644 69.80305 
L 746.093581 471.8557 
L 746.093581 471.8557 
" clip-path="url(#p84a7a54d99)" style="fill: none; stroke-dasharray: 6.25,6.25; stroke-dashoffset: 0; stroke: #666666; stroke-width: 1.25"/>
   </g>
   <g id="patch_3">
    <path d="M 68.86 488.0675 
L 68.86 53.59125 
" style="fill: none; stroke: #000000; stroke-width: 1.2; stroke-linejoin: miter; stroke-linecap: square"/>
   </g>
   <g id="patch_4">
    <path d="M 68.86 488.0675 
L 783.421417 488.0675 
" style="fill: none; stroke: #000000; stroke-width: 1.2; stroke-linejoin: miter; stroke-linecap: square"/>
   </g>
   <g id="patch_5">
    <path d="M 415.475612 326.36545 
Q 415.475612 270.83053 415.475612 215.29561 
" style="fill: none; stroke: #e11d18; stroke-width: 1.9; stroke-linecap: round"/>
    <path d="M 418.075612 321.16545 
L 415.475612 326.36545 
L 412.875612 321.16545 
" style="fill: none; stroke: #e11d18; stroke-width: 1.9; stroke-linecap: round"/>
    <path d="M 412.875612 220.49561 
L 415.475612 215.29561 
L 418.075612 220.49561 
" style="fill: none; stroke: #e11d18; stroke-width: 1.9; stroke-linecap: round"/>
   </g>
   <g id="text_17">
    <!-- minimum gap $2\kappa\prime$ -->
    <g style="fill: #e11d18" transform="translate(452.803448 273.292431) scale(0.16 -0.16)">
     <defs>
      <path id="STIXGeneral-Regular-6d" d="M 4960 0 
L 3565 0 
L 3565 96 
Q 3834 122 3907 208 
Q 3981 294 3981 576 
L 3981 1894 
Q 3981 2278 3869 2444 
Q 3757 2611 3488 2611 
Q 3264 2611 3107 2521 
Q 2950 2432 2803 2221 
L 2803 608 
Q 2803 301 2896 201 
Q 2989 102 3264 96 
L 3264 0 
L 1830 0 
L 1830 96 
Q 2112 115 2189 188 
Q 2266 262 2266 550 
L 2266 1901 
Q 2266 2611 1850 2611 
Q 1670 2611 1468 2531 
Q 1267 2451 1171 2336 
Q 1088 2240 1088 2227 
L 1088 448 
Q 1088 243 1177 176 
Q 1267 109 1523 96 
L 1523 0 
L 102 0 
L 102 96 
Q 371 102 460 195 
Q 550 288 550 563 
L 550 2150 
Q 550 2387 499 2480 
Q 448 2573 326 2573 
Q 230 2573 122 2547 
L 122 2656 
Q 557 2778 1011 2944 
L 1062 2925 
L 1062 2451 
L 1075 2451 
Q 1363 2752 1584 2848 
Q 1805 2944 2054 2944 
Q 2560 2944 2733 2406 
Q 3232 2944 3776 2944 
Q 4518 2944 4518 1792 
L 4518 493 
Q 4518 282 4582 202 
Q 4646 122 4794 109 
L 4960 96 
L 4960 0 
z
" transform="scale(0.015625)"/>
      <path id="STIXGeneral-Regular-61" d="M 2829 422 
L 2829 243 
Q 2586 -64 2253 -64 
Q 1888 -64 1843 403 
L 1837 403 
Q 1427 -64 909 -64 
Q 608 -64 422 112 
Q 237 288 237 602 
Q 237 1050 685 1350 
Q 992 1555 1837 1869 
L 1837 2214 
Q 1837 2502 1699 2646 
Q 1562 2790 1338 2790 
Q 1146 2790 1018 2697 
Q 890 2605 890 2477 
Q 890 2419 909 2348 
Q 928 2278 928 2208 
Q 928 2112 841 2029 
Q 755 1946 634 1946 
Q 525 1946 441 2029 
Q 358 2112 358 2240 
Q 358 2547 685 2752 
Q 986 2944 1421 2944 
Q 1939 2944 2176 2656 
Q 2291 2522 2323 2384 
Q 2355 2246 2355 1946 
L 2355 723 
Q 2355 301 2554 301 
Q 2682 301 2829 422 
z
M 1837 813 
L 1837 1715 
Q 1248 1510 1018 1293 
Q 800 1094 800 800 
Q 800 557 921 432 
Q 1043 307 1242 307 
Q 1453 307 1613 410 
Q 1747 506 1792 589 
Q 1837 672 1837 813 
z
" transform="scale(0.015625)"/>
      <path id="STIXGeneral-Regular-70" d="M 1018 2931 
L 1018 2438 
Q 1421 2944 1939 2944 
Q 2406 2944 2707 2560 
Q 3008 2176 3008 1581 
Q 3008 883 2621 409 
Q 2234 -64 1664 -64 
Q 1466 -64 1328 -6 
Q 1190 51 1018 211 
L 1018 -794 
Q 1018 -1094 1120 -1180 
Q 1222 -1267 1581 -1274 
L 1581 -1389 
L 32 -1389 
L 32 -1280 
Q 314 -1254 397 -1171 
Q 480 -1088 480 -838 
L 480 2157 
Q 480 2381 429 2451 
Q 378 2522 218 2522 
Q 115 2522 58 2515 
L 58 2618 
Q 506 2752 979 2944 
L 1018 2931 
z
M 1018 2138 
L 1018 563 
Q 1018 422 1238 281 
Q 1459 141 1683 141 
Q 2029 141 2243 467 
Q 2458 794 2458 1325 
Q 2458 1888 2243 2224 
Q 2029 2560 1670 2560 
Q 1446 2560 1232 2419 
Q 1018 2278 1018 2138 
z
" transform="scale(0.015625)"/>
     </defs>
     <use xlink:href="#STIXGeneral-Regular-6d" transform="translate(0 0.703125)"/>
     <use xlink:href="#STIXGeneral-Regular-69" transform="translate(77.799988 0.703125)"/>
     <use xlink:href="#STIXGeneral-Regular-6e" transform="translate(105.599976 0.703125)"/>
     <use xlink:href="#STIXGeneral-Regular-69" transform="translate(155.59996 0.703125)"/>
     <use xlink:href="#STIXGeneral-Regular-6d" transform="translate(183.399948 0.703125)"/>
     <use xlink:href="#STIXGeneral-Regular-75" transform="translate(261.199936 0.703125)"/>
     <use xlink:href="#STIXGeneral-Regular-6d" transform="translate(311.199921 0.703125)"/>
     <use xlink:href="#STIXGeneral-Regular-20" transform="translate(388.999908 0.703125)"/>
     <use xlink:href="#STIXGeneral-Regular-67" transform="translate(413.999893 0.703125)"/>
     <use xlink:href="#STIXGeneral-Regular-61" transform="translate(463.999878 0.703125)"/>
     <use xlink:href="#STIXGeneral-Regular-70" transform="translate(508.399872 0.703125)"/>
     <use xlink:href="#STIXGeneral-Regular-20" transform="translate(558.399857 0.703125)"/>
     <use xlink:href="#STIXGeneral-Regular-32" transform="translate(583.399841 0.703125)"/>
     <use xlink:href="#STIXGeneral-Italic-3ba" transform="translate(633.399826 0.703125)"/>
     <use xlink:href="#STIXGeneral-Regular-2032" transform="translate(677.79982 0.703125)"/>
    </g>
   </g>
   <g id="patch_6">
    <path d="M 562.161791 128.806245 
Q 571.063433 148.647878 579.507432 167.469431 
" style="fill: none; stroke: #444444; stroke-linecap: round"/>
    <path d="M 579.788623 160.767123 
L 579.507432 167.469431 
L 574.314301 163.223093 
" style="fill: none; stroke: #444444; stroke-linecap: round"/>
   </g>
   <g id="text_18">
    <!-- uncoupled branches $(\kappa\prime=0)$ -->
    <g transform="translate(474.133639 121.680812) scale(0.15 -0.15)">
     <defs>
      <path id="STIXGeneral-Regular-63" d="M 2547 998 
L 2637 941 
Q 2362 403 2112 205 
Q 1786 -64 1376 -64 
Q 845 -64 502 336 
Q 160 736 160 1357 
Q 160 2170 698 2618 
Q 1094 2944 1562 2944 
Q 1965 2944 2256 2749 
Q 2547 2554 2547 2285 
Q 2547 2176 2457 2096 
Q 2368 2016 2246 2016 
Q 2022 2016 1939 2310 
L 1901 2451 
Q 1850 2630 1773 2694 
Q 1696 2758 1523 2758 
Q 1133 2758 893 2451 
Q 653 2144 653 1645 
Q 653 1094 928 745 
Q 1203 397 1645 397 
Q 1920 397 2118 528 
Q 2317 659 2547 998 
z
" transform="scale(0.015625)"/>
      <path id="STIXGeneral-Regular-6f" d="M 3008 1478 
Q 3008 806 2608 371 
Q 2208 -64 1568 -64 
Q 979 -64 582 368 
Q 186 800 186 1459 
Q 186 2125 582 2534 
Q 979 2944 1626 2944 
Q 2221 2944 2614 2537 
Q 3008 2131 3008 1478 
z
M 2432 1306 
Q 2432 2035 2112 2445 
Q 1856 2765 1504 2765 
Q 1171 2765 966 2493 
Q 762 2221 762 1747 
Q 762 928 1101 435 
Q 1318 115 1677 115 
Q 2029 115 2230 432 
Q 2432 749 2432 1306 
z
" transform="scale(0.015625)"/>
      <path id="STIXGeneral-Regular-6c" d="M 1645 0 
L 134 0 
L 134 96 
Q 435 122 531 221 
Q 627 320 627 589 
L 627 3590 
Q 627 3821 569 3910 
Q 512 4000 358 4000 
Q 224 4000 122 3987 
L 122 4090 
Q 730 4237 1133 4371 
L 1165 4346 
L 1165 557 
Q 1165 288 1254 201 
Q 1344 115 1645 96 
L 1645 0 
z
" transform="scale(0.015625)"/>
      <path id="STIXGeneral-Regular-62" d="M 979 4358 
L 979 2406 
Q 1082 2650 1315 2797 
Q 1549 2944 1843 2944 
Q 2349 2944 2672 2541 
Q 2995 2138 2995 1536 
Q 2995 832 2566 384 
Q 2138 -64 1498 -64 
Q 1107 -64 774 67 
Q 442 198 442 358 
L 442 3622 
Q 442 3859 384 3926 
Q 326 3994 128 3994 
Q 83 3994 19 3981 
L 19 4090 
L 211 4147 
Q 864 4346 947 4371 
L 979 4358 
z
M 979 2035 
L 979 474 
Q 979 326 1161 233 
Q 1344 141 1600 141 
Q 1978 141 2195 416 
Q 2432 710 2432 1261 
Q 2432 1888 2182 2240 
Q 1971 2541 1613 2541 
Q 1357 2541 1168 2390 
Q 979 2240 979 2035 
z
" transform="scale(0.015625)"/>
      <path id="STIXGeneral-Regular-72" d="M 1024 2931 
L 1024 2342 
Q 1267 2688 1430 2816 
Q 1594 2944 1792 2944 
Q 1958 2944 2051 2854 
Q 2144 2765 2144 2605 
Q 2144 2470 2077 2393 
Q 2010 2317 1894 2317 
Q 1773 2317 1638 2445 
Q 1536 2541 1472 2541 
Q 1338 2541 1181 2355 
Q 1024 2170 1024 2016 
L 1024 576 
Q 1024 301 1133 205 
Q 1242 109 1568 96 
L 1568 0 
L 32 0 
L 32 96 
Q 339 154 412 224 
Q 486 294 486 538 
L 486 2138 
Q 486 2349 438 2435 
Q 390 2522 269 2522 
Q 166 2522 45 2496 
L 45 2598 
Q 448 2726 992 2944 
L 1024 2931 
z
" transform="scale(0.015625)"/>
      <path id="STIXGeneral-Regular-68" d="M 3117 0 
L 1760 0 
L 1760 96 
Q 2042 128 2118 224 
Q 2195 320 2195 653 
L 2195 1920 
Q 2195 2598 1722 2598 
Q 1530 2598 1370 2508 
Q 1210 2419 1005 2195 
L 1005 653 
Q 1005 320 1081 224 
Q 1158 128 1440 96 
L 1440 0 
L 58 0 
L 58 96 
Q 333 134 400 224 
Q 467 314 467 653 
L 467 3667 
Q 467 3872 406 3933 
Q 346 3994 141 3994 
Q 83 3994 64 3987 
L 64 4090 
L 237 4141 
Q 730 4288 973 4371 
L 1005 4352 
L 1005 2406 
Q 1229 2694 1446 2819 
Q 1664 2944 1946 2944 
Q 2733 2944 2733 1926 
L 2733 653 
Q 2733 320 2793 233 
Q 2854 147 3117 96 
L 3117 0 
z
" transform="scale(0.015625)"/>
      <path id="STIXGeneral-Regular-73" d="M 998 1926 
L 1664 1523 
Q 1984 1331 2105 1164 
Q 2227 998 2227 736 
Q 2227 416 1961 176 
Q 1696 -64 1331 -64 
Q 1030 -64 864 -6 
Q 691 51 570 51 
Q 461 51 416 -26 
L 333 -26 
L 333 979 
L 435 979 
Q 538 512 730 294 
Q 922 77 1248 77 
Q 1485 77 1632 211 
Q 1779 346 1779 550 
Q 1779 845 1440 1030 
L 1094 1222 
Q 326 1651 326 2150 
Q 326 2522 566 2730 
Q 806 2938 1210 2938 
Q 1491 2938 1638 2867 
Q 1754 2816 1818 2816 
Q 1862 2816 1920 2880 
L 1990 2880 
L 2022 2010 
L 1926 2010 
Q 1818 2445 1654 2621 
Q 1491 2797 1203 2797 
Q 986 2797 854 2688 
Q 723 2579 723 2362 
Q 723 2253 796 2128 
Q 870 2003 998 1926 
z
" transform="scale(0.015625)"/>
      <path id="STIXGeneral-Regular-28" d="M 1946 -1030 
L 1869 -1133 
Q 1126 -710 716 32 
Q 307 774 307 1613 
Q 307 3386 1888 4326 
L 1946 4224 
Q 1293 3667 1075 3126 
Q 858 2586 858 1632 
Q 858 685 1082 96 
Q 1306 -493 1946 -1030 
z
" transform="scale(0.015625)"/>
      <path id="STIXGeneral-Regular-3d" d="M 4077 2048 
L 307 2048 
L 307 2470 
L 4077 2470 
L 4077 2048 
z
M 4077 768 
L 307 768 
L 307 1190 
L 4077 1190 
L 4077 768 
z
" transform="scale(0.015625)"/>
      <path id="STIXGeneral-Regular-29" d="M 186 4224 
L 262 4326 
Q 992 3891 1408 3148 
Q 1824 2406 1824 1581 
Q 1824 -166 243 -1133 
L 186 -1030 
Q 845 -486 1059 54 
Q 1274 595 1274 1562 
Q 1274 2534 1059 3120 
Q 845 3706 186 4224 
z
" transform="scale(0.015625)"/>
     </defs>
     <use xlink:href="#STIXGeneral-Regular-75" transform="translate(0 0.703125)"/>
     <use xlink:href="#STIXGeneral-Regular-6e" transform="translate(49.999985 0.703125)"/>
     <use xlink:href="#STIXGeneral-Regular-63" transform="translate(99.999969 0.703125)"/>
     <use xlink:href="#STIXGeneral-Regular-6f" transform="translate(144.399963 0.703125)"/>
     <use xlink:href="#STIXGeneral-Regular-75" transform="translate(194.399948 0.703125)"/>
     <use xlink:href="#STIXGeneral-Regular-70" transform="translate(244.399933 0.703125)"/>
     <use xlink:href="#STIXGeneral-Regular-6c" transform="translate(294.399918 0.703125)"/>
     <use xlink:href="#STIXGeneral-Regular-65" transform="translate(322.199905 0.703125)"/>
     <use xlink:href="#STIXGeneral-Regular-64" transform="translate(366.599899 0.703125)"/>
     <use xlink:href="#STIXGeneral-Regular-20" transform="translate(416.599884 0.703125)"/>
     <use xlink:href="#STIXGeneral-Regular-62" transform="translate(441.599869 0.703125)"/>
     <use xlink:href="#STIXGeneral-Regular-72" transform="translate(491.599854 0.703125)"/>
     <use xlink:href="#STIXGeneral-Regular-61" transform="translate(524.899841 0.703125)"/>
     <use xlink:href="#STIXGeneral-Regular-6e" transform="translate(569.299835 0.703125)"/>
     <use xlink:href="#STIXGeneral-Regular-63" transform="translate(619.29982 0.703125)"/>
     <use xlink:href="#STIXGeneral-Regular-68" transform="translate(663.699814 0.703125)"/>
     <use xlink:href="#STIXGeneral-Regular-65" transform="translate(713.699799 0.703125)"/>
     <use xlink:href="#STIXGeneral-Regular-73" transform="translate(758.099792 0.703125)"/>
     <use xlink:href="#STIXGeneral-Regular-20" transform="translate(796.999786 0.703125)"/>
     <use xlink:href="#STIXGeneral-Regular-28" transform="translate(821.999771 0.703125)"/>
     <use xlink:href="#STIXGeneral-Italic-3ba" transform="translate(855.299759 0.703125)"/>
     <use xlink:href="#STIXGeneral-Regular-2032" transform="translate(899.699753 0.703125)"/>
     <use xlink:href="#STIXGeneral-Regular-3d" transform="translate(943.039743 0.703125)"/>
     <use xlink:href="#STIXGeneral-Regular-30" transform="translate(1025.979724 0.703125)"/>
     <use xlink:href="#STIXGeneral-Regular-29" transform="translate(1075.979709 0.703125)"/>
    </g>
   </g>
   <g id="patch_7">
    <path d="M 673.958851 142.284567 
Q 654.933153 133.038745 636.913036 124.281602 
" style="fill: none; stroke: #1748d4; stroke-linecap: round"/>
    <path d="M 640.998294 129.602378 
L 636.913036 124.281602 
L 643.620812 124.205861 
" style="fill: none; stroke: #1748d4; stroke-linecap: round"/>
   </g>
   <g id="text_19">
    <!-- coupled upper branch -->
    <g style="fill: #1748d4" transform="translate(628.777528 155.401356) scale(0.15 -0.15)">
     <use xlink:href="#STIXGeneral-Regular-63"/>
     <use xlink:href="#STIXGeneral-Regular-6f" transform="translate(44.399994 0)"/>
     <use xlink:href="#STIXGeneral-Regular-75" transform="translate(94.399979 0)"/>
     <use xlink:href="#STIXGeneral-Regular-70" transform="translate(144.399963 0)"/>
     <use xlink:href="#STIXGeneral-Regular-6c" transform="translate(194.399948 0)"/>
     <use xlink:href="#STIXGeneral-Regular-65" transform="translate(222.199936 0)"/>
     <use xlink:href="#STIXGeneral-Regular-64" transform="translate(266.59993 0)"/>
     <use xlink:href="#STIXGeneral-Regular-20" transform="translate(316.599915 0)"/>
     <use xlink:href="#STIXGeneral-Regular-75" transform="translate(341.599899 0)"/>
     <use xlink:href="#STIXGeneral-Regular-70" transform="translate(391.599884 0)"/>
     <use xlink:href="#STIXGeneral-Regular-70" transform="translate(441.599869 0)"/>
     <use xlink:href="#STIXGeneral-Regular-65" transform="translate(491.599854 0)"/>
     <use xlink:href="#STIXGeneral-Regular-72" transform="translate(535.999847 0)"/>
     <use xlink:href="#STIXGeneral-Regular-20" transform="translate(569.299835 0)"/>
     <use xlink:href="#STIXGeneral-Regular-62" transform="translate(594.29982 0)"/>
     <use xlink:href="#STIXGeneral-Regular-72" transform="translate(644.299805 0)"/>
     <use xlink:href="#STIXGeneral-Regular-61" transform="translate(677.599792 0)"/>
     <use xlink:href="#STIXGeneral-Regular-6e" transform="translate(721.999786 0)"/>
     <use xlink:href="#STIXGeneral-Regular-63" transform="translate(771.999771 0)"/>
     <use xlink:href="#STIXGeneral-Regular-68" transform="translate(816.399765 0)"/>
    </g>
   </g>
   <g id="patch_8">
    <path d="M 674.896217 388.803076 
Q 655.308463 403.180096 636.62202 416.895571 
" style="fill: none; stroke: #1748d4; stroke-linecap: round"/>
    <path d="M 643.234066 415.763825 
L 636.62202 416.895571 
L 639.68385 410.926887 
" style="fill: none; stroke: #1748d4; stroke-linecap: round"/>
   </g>
   <g id="text_20">
    <!-- coupled lower branch -->
    <g style="fill: #1748d4" transform="translate(623.44498 382.366562) scale(0.15 -0.15)">
     <defs>
      <path id="STIXGeneral-Regular-77" d="M 4442 2880 
L 4442 2784 
Q 4346 2752 4301 2691 
Q 4256 2630 4179 2438 
L 3296 224 
Q 3168 -90 3117 -90 
Q 3085 -90 3062 -48 
Q 3040 -6 2963 186 
L 2381 1696 
L 1664 160 
Q 1549 -90 1504 -90 
Q 1446 -90 1338 192 
L 474 2381 
Q 378 2630 314 2700 
Q 250 2771 134 2784 
L 134 2880 
L 1286 2880 
L 1286 2784 
Q 1120 2765 1056 2720 
Q 992 2675 992 2573 
Q 992 2477 1030 2381 
L 1664 710 
L 2246 1984 
L 2118 2342 
Q 2029 2598 1942 2681 
Q 1856 2765 1677 2784 
L 1677 2880 
L 2976 2880 
L 2976 2784 
Q 2752 2752 2678 2707 
Q 2605 2662 2605 2560 
Q 2605 2458 2714 2176 
L 3251 742 
L 3827 2163 
Q 3936 2432 3936 2592 
Q 3936 2669 3875 2710 
Q 3814 2752 3654 2784 
L 3654 2880 
L 4442 2880 
z
" transform="scale(0.015625)"/>
     </defs>
     <use xlink:href="#STIXGeneral-Regular-63"/>
     <use xlink:href="#STIXGeneral-Regular-6f" transform="translate(44.399994 0)"/>
     <use xlink:href="#STIXGeneral-Regular-75" transform="translate(94.399979 0)"/>
     <use xlink:href="#STIXGeneral-Regular-70" transform="translate(144.399963 0)"/>
     <use xlink:href="#STIXGeneral-Regular-6c" transform="translate(194.399948 0)"/>
     <use xlink:href="#STIXGeneral-Regular-65" transform="translate(222.199936 0)"/>
     <use xlink:href="#STIXGeneral-Regular-64" transform="translate(266.59993 0)"/>
     <use xlink:href="#STIXGeneral-Regular-20" transform="translate(316.599915 0)"/>
     <use xlink:href="#STIXGeneral-Regular-6c" transform="translate(341.599899 0)"/>
     <use xlink:href="#STIXGeneral-Regular-6f" transform="translate(369.399887 0)"/>
     <use xlink:href="#STIXGeneral-Regular-77" transform="translate(419.399872 0)"/>
     <use xlink:href="#STIXGeneral-Regular-65" transform="translate(491.599854 0)"/>
     <use xlink:href="#STIXGeneral-Regular-72" transform="translate(535.999847 0)"/>
     <use xlink:href="#STIXGeneral-Regular-20" transform="translate(569.299835 0)"/>
     <use xlink:href="#STIXGeneral-Regular-62" transform="translate(594.29982 0)"/>
     <use xlink:href="#STIXGeneral-Regular-72" transform="translate(644.299805 0)"/>
     <use xlink:href="#STIXGeneral-Regular-61" transform="translate(677.599792 0)"/>
     <use xlink:href="#STIXGeneral-Regular-6e" transform="translate(721.999786 0)"/>
     <use xlink:href="#STIXGeneral-Regular-63" transform="translate(771.999771 0)"/>
     <use xlink:href="#STIXGeneral-Regular-68" transform="translate(816.399765 0)"/>
    </g>
   </g>
   <g id="text_21">
    <!-- $(\omega^2-\bar{\omega}^{\,2})^2=\delta^2+(\kappa\prime)^2$ -->
    <g transform="translate(335.140708 42.733481) scale(0.2 -0.2)">
     <defs>
      <path id="STIXGeneral-Regular-2b" d="M 4070 1408 
L 2400 1408 
L 2400 -262 
L 1978 -262 
L 1978 1408 
L 307 1408 
L 307 1830 
L 1978 1830 
L 1978 3501 
L 2400 3501 
L 2400 1830 
L 4070 1830 
L 4070 1408 
z
" transform="scale(0.015625)"/>
     </defs>
     <use xlink:href="#STIXGeneral-Regular-28" transform="translate(0 0.409375)"/>
     <use xlink:href="#STIXGeneral-Italic-3c9" transform="translate(33.299988 0.409375)"/>
     <use xlink:href="#STIXGeneral-Regular-32" transform="translate(108.033729 35.684375) scale(0.7)"/>
     <use xlink:href="#STIXGeneral-Regular-2212" transform="translate(161.883089 0.409375)"/>
     <use xlink:href="#STIXGeneral-Regular-304" transform="translate(310.473068 2.1125)"/>
     <use xlink:href="#STIXGeneral-Italic-3c9" transform="translate(244.82307 0.409375)"/>
     <use xlink:href="#STIXGeneral-Regular-32" transform="translate(323.389842 35.684375) scale(0.7)"/>
     <use xlink:href="#STIXGeneral-Regular-29" transform="translate(362.799206 0.409375)"/>
     <use xlink:href="#STIXGeneral-Regular-32" transform="translate(397.642475 35.684375) scale(0.7)"/>
     <use xlink:href="#STIXGeneral-Regular-3d" transform="translate(451.491836 0.409375)"/>
     <use xlink:href="#STIXGeneral-Italic-3b4" transform="translate(534.431817 0.409375)"/>
     <use xlink:href="#STIXGeneral-Regular-32" transform="translate(591.372583 35.684375) scale(0.7)"/>
     <use xlink:href="#STIXGeneral-Regular-2b" transform="translate(645.221944 0.409375)"/>
     <use xlink:href="#STIXGeneral-Regular-28" transform="translate(728.161925 0.409375)"/>
     <use xlink:href="#STIXGeneral-Italic-3ba" transform="translate(761.461913 0.409375)"/>
     <use xlink:href="#STIXGeneral-Regular-2032" transform="translate(805.861907 0.409375)"/>
     <use xlink:href="#STIXGeneral-Regular-29" transform="translate(834.761901 0.409375)"/>
     <use xlink:href="#STIXGeneral-Regular-32" transform="translate(869.60517 35.684375) scale(0.7)"/>
    </g>
   </g>
   <g id="text_22">
    <!-- Coupling turns a crossing into an avoided crossing -->
    <g transform="translate(183.148208 23.59125) scale(0.24 -0.24)">
     <defs>
      <path id="STIXGeneral-Regular-43" d="M 3930 838 
L 4051 723 
Q 3482 -90 2304 -90 
Q 1376 -90 794 480 
Q 179 1082 179 2080 
Q 179 3014 755 3661 
Q 1357 4326 2310 4326 
Q 2720 4326 3072 4230 
Q 3475 4115 3514 4115 
Q 3725 4115 3782 4326 
L 3910 4326 
L 3968 2874 
L 3821 2874 
Q 3718 3334 3488 3584 
Q 3034 4070 2458 4070 
Q 1747 4070 1334 3548 
Q 922 3027 922 2182 
Q 922 1152 1382 653 
Q 1811 192 2522 192 
Q 2944 192 3251 339 
Q 3558 486 3930 838 
z
" transform="scale(0.015625)"/>
      <path id="STIXGeneral-Regular-76" d="M 3053 2880 
L 3053 2784 
Q 2906 2771 2835 2688 
Q 2765 2605 2637 2285 
L 1818 230 
Q 1690 -90 1638 -90 
Q 1587 -90 1523 77 
Q 1510 96 1497 141 
Q 1485 186 1472 211 
L 704 2048 
Q 499 2534 403 2652 
Q 307 2771 122 2784 
L 122 2880 
L 1376 2880 
L 1376 2784 
Q 1210 2771 1146 2732 
Q 1082 2694 1082 2611 
Q 1082 2509 1139 2368 
L 1792 730 
L 2426 2387 
Q 2464 2483 2464 2579 
Q 2464 2758 2163 2784 
L 2163 2880 
L 3053 2880 
z
" transform="scale(0.015625)"/>
     </defs>
     <use xlink:href="#STIXGeneral-Regular-43"/>
     <use xlink:href="#STIXGeneral-Regular-6f" transform="translate(66.699997 0)"/>
     <use xlink:href="#STIXGeneral-Regular-75" transform="translate(116.699982 0)"/>
     <use xlink:href="#STIXGeneral-Regular-70" transform="translate(166.699966 0)"/>
     <use xlink:href="#STIXGeneral-Regular-6c" transform="translate(216.699951 0)"/>
     <use xlink:href="#STIXGeneral-Regular-69" transform="translate(244.499939 0)"/>
     <use xlink:href="#STIXGeneral-Regular-6e" transform="translate(272.299927 0)"/>
     <use xlink:href="#STIXGeneral-Regular-67" transform="translate(322.299911 0)"/>
     <use xlink:href="#STIXGeneral-Regular-20" transform="translate(372.299896 0)"/>
     <use xlink:href="#STIXGeneral-Regular-74" transform="translate(397.299881 0)"/>
     <use xlink:href="#STIXGeneral-Regular-75" transform="translate(425.099869 0)"/>
     <use xlink:href="#STIXGeneral-Regular-72" transform="translate(475.099854 0)"/>
     <use xlink:href="#STIXGeneral-Regular-6e" transform="translate(508.399841 0)"/>
     <use xlink:href="#STIXGeneral-Regular-73" transform="translate(558.399826 0)"/>
     <use xlink:href="#STIXGeneral-Regular-20" transform="translate(597.29982 0)"/>
     <use xlink:href="#STIXGeneral-Regular-61" transform="translate(622.299805 0)"/>
     <use xlink:href="#STIXGeneral-Regular-20" transform="translate(666.699799 0)"/>
     <use xlink:href="#STIXGeneral-Regular-63" transform="translate(691.699783 0)"/>
     <use xlink:href="#STIXGeneral-Regular-72" transform="translate(736.099777 0)"/>
     <use xlink:href="#STIXGeneral-Regular-6f" transform="translate(769.399765 0)"/>
     <use xlink:href="#STIXGeneral-Regular-73" transform="translate(819.39975 0)"/>
     <use xlink:href="#STIXGeneral-Regular-73" transform="translate(858.299744 0)"/>
     <use xlink:href="#STIXGeneral-Regular-69" transform="translate(897.199738 0)"/>
     <use xlink:href="#STIXGeneral-Regular-6e" transform="translate(924.999725 0)"/>
     <use xlink:href="#STIXGeneral-Regular-67" transform="translate(974.99971 0)"/>
     <use xlink:href="#STIXGeneral-Regular-20" transform="translate(1024.999695 0)"/>
     <use xlink:href="#STIXGeneral-Regular-69" transform="translate(1049.99968 0)"/>
     <use xlink:href="#STIXGeneral-Regular-6e" transform="translate(1077.799667 0)"/>
     <use xlink:href="#STIXGeneral-Regular-74" transform="translate(1127.799652 0)"/>
     <use xlink:href="#STIXGeneral-Regular-6f" transform="translate(1155.59964 0)"/>
     <use xlink:href="#STIXGeneral-Regular-20" transform="translate(1205.599625 0)"/>
     <use xlink:href="#STIXGeneral-Regular-61" transform="translate(1230.599609 0)"/>
     <use xlink:href="#STIXGeneral-Regular-6e" transform="translate(1274.999603 0)"/>
     <use xlink:href="#STIXGeneral-Regular-20" transform="translate(1324.999588 0)"/>
     <use xlink:href="#STIXGeneral-Regular-61" transform="translate(1349.999573 0)"/>
     <use xlink:href="#STIXGeneral-Regular-76" transform="translate(1394.399567 0)"/>
     <use xlink:href="#STIXGeneral-Regular-6f" transform="translate(1444.399551 0)"/>
     <use xlink:href="#STIXGeneral-Regular-69" transform="translate(1494.399536 0)"/>
     <use xlink:href="#STIXGeneral-Regular-64" transform="translate(1522.199524 0)"/>
     <use xlink:href="#STIXGeneral-Regular-65" transform="translate(1572.199509 0)"/>
     <use xlink:href="#STIXGeneral-Regular-64" transform="translate(1616.599503 0)"/>
     <use xlink:href="#STIXGeneral-Regular-20" transform="translate(1666.599487 0)"/>
     <use xlink:href="#STIXGeneral-Regular-63" transform="translate(1691.599472 0)"/>
     <use xlink:href="#STIXGeneral-Regular-72" transform="translate(1735.999466 0)"/>
     <use xlink:href="#STIXGeneral-Regular-6f" transform="translate(1769.299454 0)"/>
     <use xlink:href="#STIXGeneral-Regular-73" transform="translate(1819.299438 0)"/>
     <use xlink:href="#STIXGeneral-Regular-73" transform="translate(1858.199432 0)"/>
     <use xlink:href="#STIXGeneral-Regular-69" transform="translate(1897.099426 0)"/>
     <use xlink:href="#STIXGeneral-Regular-6e" transform="translate(1924.899414 0)"/>
     <use xlink:href="#STIXGeneral-Regular-67" transform="translate(1974.899399 0)"/>
    </g>
   </g>
   <g id="PathCollection_1">
    <defs>
     <path id="m690c7bc704" d="M 0 4.330127 
C 1.148363 4.330127 2.249847 3.873878 3.061862 3.061862 
C 3.873878 2.249847 4.330127 1.148363 4.330127 0 
C 4.330127 -1.148363 3.873878 -2.249847 3.061862 -3.061862 
C 2.249847 -3.873878 1.148363 -4.330127 0 -4.330127 
C -1.148363 -4.330127 -2.249847 -3.873878 -3.061862 -3.061862 
C -3.873878 -2.249847 -4.330127 -1.148363 -4.330127 0 
C -4.330127 1.148363 -3.873878 2.249847 -3.061862 3.061862 
C -2.249847 3.873878 -1.148363 4.330127 0 4.330127 
z
" style="stroke: #e11d18"/>
    </defs>
    <g clip-path="url(#p84a7a54d99)">
     <use xlink:href="#m690c7bc704" x="415.475612" y="205.982174" style="fill: #e11d18; stroke: #e11d18"/>
     <use xlink:href="#m690c7bc704" x="415.475612" y="335.676576" style="fill: #e11d18; stroke: #e11d18"/>
    </g>
   </g>
  </g>
 </g>
 <defs>
  <clipPath id="p84a7a54d99">
   <rect x="68.86" y="53.59125" width="714.561417" height="434.47625"/>
  </clipPath>
 </defs>
</svg>
