<?xml version="1.0" encoding="utf-8" standalone="no"?>
<!DOCTYPE svg PUBLIC "-//W3C//DTD SVG 1.1//EN"
  "http://www.w3.org/Graphics/SVG/1.1/DTD/svg11.dtd">
<svg xmlns:xlink="http://www.w3.org/1999/xlink" width="632.16pt" height="345.384pt" viewBox="0 0 632.16 345.384" xmlns="http://www.w3.org/2000/svg" version="1.1">
 <metadata>
  <rdf:RDF xmlns:dc="http://purl.org/dc/elements/1.1/" xmlns:cc="http://creativecommons.org/ns#" xmlns:rdf="http://www.w3.org/1999/02/22-rdf-syntax-ns#">
   <cc:Work>
    <dc:type rdf:resource="http://purl.org/dc/dcmitype/StillImage"/>
    <dc:date>2026-07-10T15:19:45.844337</dc:date>
    <dc:format>image/svg+xml</dc:format>
    <dc:creator>
     <cc:Agent>
      <dc:title>Matplotlib v3.10.8, https://matplotlib.org/</dc:title>
     </cc:Agent>
    </dc:creator>
   </cc:Work>
  </rdf:RDF>
 </metadata>
 <defs>
  <style type="text/css">*{stroke-linejoin: round; stroke-linecap: butt}</style>
 </defs>
 <g id="figure_1">
  <g id="patch_1">
   <path d="M 0 345.384 
L 632.16 345.384 
L 632.16 0 
L 0 0 
z
" style="fill: #ffffff"/>
  </g>
  <g id="axes_1">
   <g id="patch_2">
    <path d="M 176.58 75.672 
L 204.201 75.672 
L 204.201 153.288 
L 176.58 153.288 
z
" clip-path="url(#pd48fc0546c)" style="fill: #eef0f2; stroke: #c9ced3; stroke-width: 0.75; stroke-linejoin: miter"/>
   </g>
   <g id="patch_3">
    <path d="M 204.201 75.672 
L 231.822 75.672 
L 231.822 153.288 
L 204.201 153.288 
z
" clip-path="url(#pd48fc0546c)" style="fill: url(#h6b7e676382); stroke: #c9ced3; stroke-width: 0.75; stroke-linejoin: miter"/>
   </g>
   <g id="patch_4">
    <path d="M 231.822 75.672 
L 259.443 75.672 
L 259.443 153.288 
L 231.822 153.288 
z
" clip-path="url(#pd48fc0546c)" style="fill: #eef0f2; stroke: #c9ced3; stroke-width: 0.75; stroke-linejoin: miter"/>
   </g>
   <g id="patch_5">
    <path d="M 259.443 75.672 
L 287.064 75.672 
L 287.064 153.288 
L 259.443 153.288 
z
" clip-path="url(#pd48fc0546c)" style="fill: url(#h6b7e676382); stroke: #c9ced3; stroke-width: 0.75; stroke-linejoin: miter"/>
   </g>
   <g id="patch_6">
    <path d="M 287.064 75.672 
L 314.685 75.672 
L 314.685 153.288 
L 287.064 153.288 
z
" clip-path="url(#pd48fc0546c)" style="fill: #eef0f2; stroke: #c9ced3; stroke-width: 0.75; stroke-linejoin: miter"/>
   </g>
   <g id="patch_7">
    <path d="M 314.685 75.672 
L 342.306 75.672 
L 342.306 153.288 
L 314.685 153.288 
z
" clip-path="url(#pd48fc0546c)" style="fill: url(#h6b7e676382); stroke: #c9ced3; stroke-width: 0.75; stroke-linejoin: miter"/>
   </g>
   <g id="patch_8">
    <path d="M 342.306 75.672 
L 369.927 75.672 
L 369.927 153.288 
L 342.306 153.288 
z
" clip-path="url(#pd48fc0546c)" style="fill: #eef0f2; stroke: #c9ced3; stroke-width: 0.75; stroke-linejoin: miter"/>
   </g>
   <g id="patch_9">
    <path d="M 369.927 75.672 
L 397.548 75.672 
L 397.548 153.288 
L 369.927 153.288 
z
" clip-path="url(#pd48fc0546c)" style="fill: url(#h6b7e676382); stroke: #c9ced3; stroke-width: 0.75; stroke-linejoin: miter"/>
   </g>
   <g id="patch_10">
    <path d="M 397.548 75.672 
L 425.169 75.672 
L 425.169 153.288 
L 397.548 153.288 
z
" clip-path="url(#pd48fc0546c)" style="fill: #eef0f2; stroke: #c9ced3; stroke-width: 0.75; stroke-linejoin: miter"/>
   </g>
   <g id="patch_11">
    <path d="M 425.169 75.672 
L 452.79 75.672 
L 452.79 153.288 
L 425.169 153.288 
z
" clip-path="url(#pd48fc0546c)" style="fill: url(#h6b7e676382); stroke: #c9ced3; stroke-width: 0.75; stroke-linejoin: miter"/>
   </g>
   <g id="patch_12">
    <path d="M 62.19 139.9824 
Q 119.385 134.9928 174.352393 130.197533 
" clip-path="url(#pd48fc0546c)" style="fill: none; stroke: #1d2329; stroke-width: 2; stroke-linecap: round"/>
    <path d="M 168.946106 128.059294 
L 174.352393 130.197533 
L 169.398029 133.239619 
z
" clip-path="url(#pd48fc0546c)" style="fill: #1d2329; stroke: #1d2329; stroke-width: 2; stroke-linecap: round"/>
   </g>
   <g id="patch_13">
    <path d="M 176.58 130.0032 
Q 314.685 114.48 450.567925 99.206564 
" clip-path="url(#pd48fc0546c)" style="fill: none; stroke: #1d2329; stroke-width: 2; stroke-linecap: round"/>
    <path d="M 445.110051 97.203665 
L 450.567925 99.206564 
L 445.69088 102.371124 
z
" clip-path="url(#pd48fc0546c)" style="fill: #1d2329; stroke: #1d2329; stroke-width: 2; stroke-linecap: round"/>
   </g>
   <g id="patch_14">
    <path d="M 452.79 98.9568 
Q 494.64 93.9672 534.269657 89.242322 
" clip-path="url(#pd48fc0546c)" style="fill: none; stroke: #1d2329; stroke-width: 2; stroke-linecap: round"/>
    <path d="M 528.798419 87.276221 
L 534.269657 89.242322 
L 529.414033 92.439652 
z
" clip-path="url(#pd48fc0546c)" style="fill: #1d2329; stroke: #1d2329; stroke-width: 2; stroke-linecap: round"/>
   </g>
   <g id="patch_15">
    <path d="M 204.201 126.89856 
Q 188.856 120.80016 174.913637 115.259195 
" clip-path="url(#pd48fc0546c)" style="fill: none; stroke: #2f6f8f; stroke-width: 1.35; stroke-linecap: round"/>
    <path d="M 177.296486 117.927909 
L 174.913637 115.259195 
L 178.478317 114.954144 
z
" clip-path="url(#pd48fc0546c)" style="fill: #2f6f8f; stroke: #2f6f8f; stroke-width: 1.35; stroke-linecap: round"/>
   </g>
   <g id="patch_16">
    <path d="M 259.443 120.68928 
Q 244.098 114.59088 230.155637 109.049915 
" clip-path="url(#pd48fc0546c)" style="fill: none; stroke: #2f6f8f; stroke-width: 1.35; stroke-linecap: round"/>
    <path d="M 232.538486 111.718629 
L 230.155637 109.049915 
L 233.720317 108.744864 
z
" clip-path="url(#pd48fc0546c)" style="fill: #2f6f8f; stroke: #2f6f8f; stroke-width: 1.35; stroke-linecap: round"/>
   </g>
   <g id="patch_17">
    <path d="M 314.685 114.48 
Q 299.34 108.3816 285.397637 102.840635 
" clip-path="url(#pd48fc0546c)" style="fill: none; stroke: #2f6f8f; stroke-width: 1.35; stroke-linecap: round"/>
    <path d="M 287.780486 105.509349 
L 285.397637 102.840635 
L 288.962317 102.535584 
z
" clip-path="url(#pd48fc0546c)" style="fill: #2f6f8f; stroke: #2f6f8f; stroke-width: 1.35; stroke-linecap: round"/>
   </g>
   <g id="patch_18">
    <path d="M 369.927 108.27072 
Q 354.582 102.17232 340.639637 96.631355 
" clip-path="url(#pd48fc0546c)" style="fill: none; stroke: #2f6f8f; stroke-width: 1.35; stroke-linecap: round"/>
    <path d="M 343.022486 99.300069 
L 340.639637 96.631355 
L 344.204317 96.326304 
z
" clip-path="url(#pd48fc0546c)" style="fill: #2f6f8f; stroke: #2f6f8f; stroke-width: 1.35; stroke-linecap: round"/>
   </g>
   <g id="patch_19">
    <path d="M 425.169 102.06144 
Q 409.824 95.96304 395.881637 90.422075 
" clip-path="url(#pd48fc0546c)" style="fill: none; stroke: #2f6f8f; stroke-width: 1.35; stroke-linecap: round"/>
    <path d="M 398.264486 93.090789 
L 395.881637 90.422075 
L 399.446317 90.117024 
z
" clip-path="url(#pd48fc0546c)" style="fill: #2f6f8f; stroke: #2f6f8f; stroke-width: 1.35; stroke-linecap: round"/>
   </g>
   <g id="patch_20">
    <path d="M 176.58 127.2312 
Q 127.197 109.7676 80.765383 93.347715 
" clip-path="url(#pd48fc0546c)" style="fill: none; stroke: #2f6f8f; stroke-width: 2.8; stroke-linecap: round"/>
    <path d="M 85.11145 97.854565 
L 80.765383 93.347715 
L 86.978503 92.574972 
z
" clip-path="url(#pd48fc0546c)" style="fill: #2f6f8f; stroke: #2f6f8f; stroke-width: 2.8; stroke-linecap: round"/>
   </g>
   <g id="patch_21">
    <path d="M 501.899085 69.0192 
Q 535.374 69.0192 568.848915 69.0192 
" clip-path="url(#pd48fc0546c)" style="fill: none; stroke: #2f6f8f; stroke-width: 2.5; stroke-linecap: round"/>
    <path d="M 506.299085 71.2192 
L 501.899085 69.0192 
L 506.299085 66.8192 
z
" clip-path="url(#pd48fc0546c)" style="fill: #2f6f8f; stroke: #2f6f8f; stroke-width: 2.5; stroke-linecap: round"/>
    <path d="M 564.448915 66.8192 
L 568.848915 69.0192 
L 564.448915 71.2192 
z
" clip-path="url(#pd48fc0546c)" style="fill: #2f6f8f; stroke: #2f6f8f; stroke-width: 2.5; stroke-linecap: round"/>
   </g>
   <g id="patch_22">
    <path d="M 176.58 217.044 
L 204.201 217.044 
L 204.201 294.66 
L 176.58 294.66 
z
" clip-path="url(#pd48fc0546c)" style="fill: #eef0f2; stroke: #c9ced3; stroke-width: 0.75; stroke-linejoin: miter"/>
   </g>
   <g id="patch_23">
    <path d="M 204.201 217.044 
L 231.822 217.044 
L 231.822 294.66 
L 204.201 294.66 
z
" clip-path="url(#pd48fc0546c)" style="fill: url(#h6b7e676382); stroke: #c9ced3; stroke-width: 0.75; stroke-linejoin: miter"/>
   </g>
   <g id="patch_24">
    <path d="M 231.822 217.044 
L 259.443 217.044 
L 259.443 294.66 
L 231.822 294.66 
z
" clip-path="url(#pd48fc0546c)" style="fill: #eef0f2; stroke: #c9ced3; stroke-width: 0.75; stroke-linejoin: miter"/>
   </g>
   <g id="patch_25">
    <path d="M 259.443 217.044 
L 287.064 217.044 
L 287.064 294.66 
L 259.443 294.66 
z
" clip-path="url(#pd48fc0546c)" style="fill: url(#h6b7e676382); stroke: #c9ced3; stroke-width: 0.75; stroke-linejoin: miter"/>
   </g>
   <g id="patch_26">
    <path d="M 287.064 217.044 
L 314.685 217.044 
L 314.685 294.66 
L 287.064 294.66 
z
" clip-path="url(#pd48fc0546c)" style="fill: #eef0f2; stroke: #c9ced3; stroke-width: 0.75; stroke-linejoin: miter"/>
   </g>
   <g id="patch_27">
    <path d="M 314.685 217.044 
L 342.306 217.044 
L 342.306 294.66 
L 314.685 294.66 
z
" clip-path="url(#pd48fc0546c)" style="fill: url(#h6b7e676382); stroke: #c9ced3; stroke-width: 0.75; stroke-linejoin: miter"/>
   </g>
   <g id="patch_28">
    <path d="M 342.306 217.044 
L 369.927 217.044 
L 369.927 294.66 
L 342.306 294.66 
z
" clip-path="url(#pd48fc0546c)" style="fill: #eef0f2; stroke: #c9ced3; stroke-width: 0.75; stroke-linejoin: miter"/>
   </g>
   <g id="patch_29">
    <path d="M 369.927 217.044 
L 397.548 217.044 
L 397.548 294.66 
L 369.927 294.66 
z
" clip-path="url(#pd48fc0546c)" style="fill: url(#h6b7e676382); stroke: #c9ced3; stroke-width: 0.75; stroke-linejoin: miter"/>
   </g>
   <g id="patch_30">
    <path d="M 397.548 217.044 
L 425.169 217.044 
L 425.169 294.66 
L 397.548 294.66 
z
" clip-path="url(#pd48fc0546c)" style="fill: #eef0f2; stroke: #c9ced3; stroke-width: 0.75; stroke-linejoin: miter"/>
   </g>
   <g id="patch_31">
    <path d="M 425.169 217.044 
L 452.79 217.044 
L 452.79 294.66 
L 425.169 294.66 
z
" clip-path="url(#pd48fc0546c)" style="fill: url(#h6b7e676382); stroke: #c9ced3; stroke-width: 0.75; stroke-linejoin: miter"/>
   </g>
   <g id="patch_32">
    <path d="M 62.19 281.3544 
Q 119.385 276.3648 174.352393 271.569533 
" clip-path="url(#pd48fc0546c)" style="fill: none; stroke: #1d2329; stroke-width: 2; stroke-linecap: round"/>
    <path d="M 168.946106 269.431294 
L 174.352393 271.569533 
L 169.398029 274.611619 
z
" clip-path="url(#pd48fc0546c)" style="fill: #1d2329; stroke: #1d2329; stroke-width: 2; stroke-linecap: round"/>
   </g>
   <g id="patch_33">
    <path d="M 176.58 271.3752 
Q 314.685 255.852 450.567925 240.578564 
" clip-path="url(#pd48fc0546c)" style="fill: none; stroke: #1d2329; stroke-width: 2; stroke-linecap: round"/>
    <path d="M 445.110051 238.575665 
L 450.567925 240.578564 
L 445.69088 243.743124 
z
" clip-path="url(#pd48fc0546c)" style="fill: #1d2329; stroke: #1d2329; stroke-width: 2; stroke-linecap: round"/>
   </g>
   <g id="patch_34">
    <path d="M 452.79 240.3288 
Q 494.64 235.3392 534.269657 230.614322 
" clip-path="url(#pd48fc0546c)" style="fill: none; stroke: #1d2329; stroke-width: 2; stroke-linecap: round"/>
    <path d="M 528.798419 228.648221 
L 534.269657 230.614322 
L 529.414033 233.811652 
z
" clip-path="url(#pd48fc0546c)" style="fill: #1d2329; stroke: #1d2329; stroke-width: 2; stroke-linecap: round"/>
   </g>
   <g id="patch_35">
    <path d="M 204.201 265.22136 
C 205.014908 265.22136 205.795591 265.542643 206.371111 266.11445 
C 206.946631 266.686257 207.27 267.461903 207.27 268.27056 
C 207.27 269.079217 206.946631 269.854863 206.371111 270.42667 
C 205.795591 270.998477 205.014908 271.31976 204.201 271.31976 
C 203.387092 271.31976 202.606409 270.998477 202.030889 270.42667 
C 201.455369 269.854863 201.132 269.079217 201.132 268.27056 
C 201.132 267.461903 201.455369 266.686257 202.030889 266.11445 
C 202.606409 265.542643 203.387092 265.22136 204.201 265.22136 
z
" clip-path="url(#pd48fc0546c)" style="fill: #ffffff; stroke: #bf654f; stroke-linejoin: miter"/>
   </g>
   <g id="patch_36">
    <path d="M 259.443 259.01208 
C 260.256908 259.01208 261.037591 259.333363 261.613111 259.90517 
C 262.188631 260.476977 262.512 261.252623 262.512 262.06128 
C 262.512 262.869937 262.188631 263.645583 261.613111 264.21739 
C 261.037591 264.789197 260.256908 265.11048 259.443 265.11048 
C 258.629092 265.11048 257.848409 264.789197 257.272889 264.21739 
C 256.697369 263.645583 256.374 262.869937 256.374 262.06128 
C 256.374 261.252623 256.697369 260.476977 257.272889 259.90517 
C 257.848409 259.333363 258.629092 259.01208 259.443 259.01208 
z
" clip-path="url(#pd48fc0546c)" style="fill: #ffffff; stroke: #bf654f; stroke-linejoin: miter"/>
   </g>
   <g id="patch_37">
    <path d="M 314.685 252.8028 
C 315.498908 252.8028 316.279591 253.124083 316.855111 253.69589 
C 317.430631 254.267697 317.754 255.043343 317.754 255.852 
C 317.754 256.660657 317.430631 257.436303 316.855111 258.00811 
C 316.279591 258.579917 315.498908 258.9012 314.685 258.9012 
C 313.871092 258.9012 313.090409 258.579917 312.514889 258.00811 
C 311.939369 257.436303 311.616 256.660657 311.616 255.852 
C 311.616 255.043343 311.939369 254.267697 312.514889 253.69589 
C 313.090409 253.124083 313.871092 252.8028 314.685 252.8028 
z
" clip-path="url(#pd48fc0546c)" style="fill: #ffffff; stroke: #bf654f; stroke-linejoin: miter"/>
   </g>
   <g id="patch_38">
    <path d="M 369.927 246.59352 
C 370.740908 246.59352 371.521591 246.914803 372.097111 247.48661 
C 372.672631 248.058417 372.996 248.834063 372.996 249.64272 
C 372.996 250.451377 372.672631 251.227023 372.097111 251.79883 
C 371.521591 252.370637 370.740908 252.69192 369.927 252.69192 
C 369.113092 252.69192 368.332409 252.370637 367.756889 251.79883 
C 367.181369 251.227023 366.858 250.451377 366.858 249.64272 
C 366.858 248.834063 367.181369 248.058417 367.756889 247.48661 
C 368.332409 246.914803 369.113092 246.59352 369.927 246.59352 
z
" clip-path="url(#pd48fc0546c)" style="fill: #ffffff; stroke: #bf654f; stroke-linejoin: miter"/>
   </g>
   <g id="patch_39">
    <path d="M 425.169 240.38424 
C 425.982908 240.38424 426.763591 240.705523 427.339111 241.27733 
C 427.914631 241.849137 428.238 242.624783 428.238 243.43344 
C 428.238 244.242097 427.914631 245.017743 427.339111 245.58955 
C 426.763591 246.161357 425.982908 246.48264 425.169 246.48264 
C 424.355092 246.48264 423.574409 246.161357 422.998889 245.58955 
C 422.423369 245.017743 422.1 244.242097 422.1 243.43344 
C 422.1 242.624783 422.423369 241.849137 422.998889 241.27733 
C 423.574409 240.705523 424.355092 240.38424 425.169 240.38424 
z
" clip-path="url(#pd48fc0546c)" style="fill: #ffffff; stroke: #bf654f; stroke-linejoin: miter"/>
   </g>
   <g id="patch_40">
    <path d="M 452.79 240.3288 
Q 511.38 233.1216 566.862924 226.296604 
" clip-path="url(#pd48fc0546c)" style="fill: none; stroke: #bf654f; stroke-width: 2.8; stroke-linecap: round"/>
    <path d="M 560.962965 224.201257 
L 566.862924 226.296604 
L 561.646671 229.759364 
z
" clip-path="url(#pd48fc0546c)" style="fill: #bf654f; stroke: #bf654f; stroke-width: 2.8; stroke-linecap: round"/>
   </g>
   <g id="line2d_1">
    <path d="M 499.104 210.3912 
L 571.644 210.3912 
" clip-path="url(#pd48fc0546c)" style="fill: none; stroke-dasharray: 4.5,4.5; stroke-dashoffset: 0; stroke: #c9ced3; stroke-width: 1.5"/>
   </g>
   <g id="text_1">
    <text style="font-weight: 700; font-size: 15.5px; font-family: 'STIX Two Text', 'STIXGeneral', 'DejaVu Serif', serif; text-anchor: start; fill: #1d2329" x="24.804" y="29.542016" transform="rotate(-0 24.804 29.542016)">A DBR stopband is the accumulated backward wave</text>
   </g>
   <g id="text_2">
    <text style="font-weight: 700; font-size: 15px; font-family: 'STIX Two Text', 'STIXGeneral', 'DejaVu Serif', serif; text-anchor: start; fill: #2f6f8f" x="27.036" y="118.012031" transform="rotate(-0 27.036 118.012031)">TE</text>
   </g>
   <g id="text_3">
    <!-- each interface contributes $r_{\rm TE}\neq0$ -->
    <g style="fill: #2f6f8f" transform="translate(179.37 57.9312)">
     <text>
      <tspan x="0" y="-0.484375" style="font-size: 11.3px; font-family: 'STIXGeneral'; fill: #2f6f8f">e</tspan>
      <tspan x="4.994995" y="-0.484375" style="font-size: 11.3px; font-family: 'STIXGeneral'; fill: #2f6f8f">a</tspan>
      <tspan x="9.98999" y="-0.484375" style="font-size: 11.3px; font-family: 'STIXGeneral'; fill: #2f6f8f">c</tspan>
      <tspan x="14.984985" y="-0.484375" style="font-size: 11.3px; font-family: 'STIXGeneral'; fill: #2f6f8f">h</tspan>
      <tspan x="20.60997" y="-0.484375" style="font-size: 11.3px; font-family: 'STIXGeneral'; fill: #2f6f8f"> </tspan>
      <tspan x="23.422455" y="-0.484375" style="font-size: 11.3px; font-family: 'STIXGeneral'; fill: #2f6f8f">i</tspan>
      <tspan x="26.549942" y="-0.484375" style="font-size: 11.3px; font-family: 'STIXGeneral'; fill: #2f6f8f">n</tspan>
      <tspan x="32.174927" y="-0.484375" style="font-size: 11.3px; font-family: 'STIXGeneral'; fill: #2f6f8f">t</tspan>
      <tspan x="35.302414" y="-0.484375" style="font-size: 11.3px; font-family: 'STIXGeneral'; fill: #2f6f8f">e</tspan>
      <tspan x="40.297409" y="-0.484375" style="font-size: 11.3px; font-family: 'STIXGeneral'; fill: #2f6f8f">r</tspan>
      <tspan x="44.043655" y="-0.484375" style="font-size: 11.3px; font-family: 'STIXGeneral'; fill: #2f6f8f">f</tspan>
      <tspan x="47.789902" y="-0.484375" style="font-size: 11.3px; font-family: 'STIXGeneral'; fill: #2f6f8f">a</tspan>
      <tspan x="52.784897" y="-0.484375" style="font-size: 11.3px; font-family: 'STIXGeneral'; fill: #2f6f8f">c</tspan>
      <tspan x="57.779892" y="-0.484375" style="font-size: 11.3px; font-family: 'STIXGeneral'; fill: #2f6f8f">e</tspan>
      <tspan x="62.774887" y="-0.484375" style="font-size: 11.3px; font-family: 'STIXGeneral'; fill: #2f6f8f"> </tspan>
      <tspan x="65.587372" y="-0.484375" style="font-size: 11.3px; font-family: 'STIXGeneral'; fill: #2f6f8f">c</tspan>
      <tspan x="70.582367" y="-0.484375" style="font-size: 11.3px; font-family: 'STIXGeneral'; fill: #2f6f8f">o</tspan>
      <tspan x="76.207352" y="-0.484375" style="font-size: 11.3px; font-family: 'STIXGeneral'; fill: #2f6f8f">n</tspan>
      <tspan x="81.832336" y="-0.484375" style="font-size: 11.3px; font-family: 'STIXGeneral'; fill: #2f6f8f">t</tspan>
      <tspan x="84.959824" y="-0.484375" style="font-size: 11.3px; font-family: 'STIXGeneral'; fill: #2f6f8f">r</tspan>
      <tspan x="88.70607" y="-0.484375" style="font-size: 11.3px; font-family: 'STIXGeneral'; fill: #2f6f8f">i</tspan>
      <tspan x="91.833557" y="-0.484375" style="font-size: 11.3px; font-family: 'STIXGeneral'; fill: #2f6f8f">b</tspan>
      <tspan x="97.458542" y="-0.484375" style="font-size: 11.3px; font-family: 'STIXGeneral'; fill: #2f6f8f">u</tspan>
      <tspan x="103.083527" y="-0.484375" style="font-size: 11.3px; font-family: 'STIXGeneral'; fill: #2f6f8f">t</tspan>
      <tspan x="106.211014" y="-0.484375" style="font-size: 11.3px; font-family: 'STIXGeneral'; fill: #2f6f8f">e</tspan>
      <tspan x="111.206009" y="-0.484375" style="font-size: 11.3px; font-family: 'STIXGeneral'; fill: #2f6f8f">s</tspan>
      <tspan x="115.582245" y="-0.484375" style="font-size: 11.3px; font-family: 'STIXGeneral'; fill: #2f6f8f"> </tspan>
      <tspan x="134.503064" y="-0.484375" style="font-size: 11.3px; font-family: 'STIXGeneral'; fill: #2f6f8f">≠</tspan>
      <tspan x="143.833798" y="-0.484375" style="font-size: 11.3px; font-family: 'STIXGeneral'; fill: #2f6f8f">0</tspan>
      <tspan x="118.39473" y="-0.484375" style="font-style: italic; font-size: 11.3px; font-family: 'STIXGeneral'; fill: #2f6f8f">r</tspan>
      <tspan x="122.770966" y="0.96875" style="font-size: 7.91px; font-family: 'STIXGeneral'; fill: #2f6f8f">T</tspan>
      <tspan x="127.582579" y="0.96875" style="font-size: 7.91px; font-family: 'STIXGeneral'; fill: #2f6f8f">E</tspan>
     </text>
    </g>
   </g>
   <g id="text_4">
    <text style="font-size: 10.8px; font-family: 'STIX Two Text', 'STIXGeneral', 'DejaVu Serif', serif; text-anchor: start; fill: #2f6f8f" x="34.848" y="74.0088" transform="rotate(-0 34.848 74.0088)">strong reflected wave</text>
   </g>
   <g id="text_5">
    <text style="font-size: 10.2px; font-family: 'STIX Two Text', 'STIXGeneral', 'DejaVu Serif', serif; text-anchor: start; fill: #66717a" x="504.684" y="156.06" transform="rotate(-0 504.684 156.06)">weak transmission</text>
   </g>
   <g id="text_6">
    <!-- $F$ -->
    <g style="fill: #1d2329" transform="translate(482.364 72.3456)">
     <text>
      <tspan x="0" y="-0.859375" style="font-style: italic; font-size: 14px; font-family: 'STIXGeneral'; fill: #1d2329">F</tspan>
     </text>
    </g>
   </g>
   <g id="text_7">
    <!-- $B$ -->
    <g style="fill: #1d2329" transform="translate(585.036 72.3456)">
     <text>
      <tspan x="0" y="-0.859375" style="font-style: italic; font-size: 14px; font-family: 'STIXGeneral'; fill: #1d2329">B</tspan>
     </text>
    </g>
   </g>
   <g id="text_8">
    <!-- $\kappa_{\rm TE}$ finite -->
    <g style="fill: #2f6f8f" transform="translate(514.782 54.6048)">
     <text>
      <tspan x="0" y="-0.484375" style="font-style: italic; font-size: 10.8px; font-family: 'STIXGeneral'; fill: #2f6f8f">κ</tspan>
      <tspan x="4.772995" y="0.96875" style="font-size: 7.56px; font-family: 'STIXGeneral'; fill: #2f6f8f">T</tspan>
      <tspan x="9.370761" y="0.96875" style="font-size: 7.56px; font-family: 'STIXGeneral'; fill: #2f6f8f">E</tspan>
      <tspan x="14.452902" y="-0.484375" style="font-size: 10.8px; font-family: 'STIXGeneral'; fill: #2f6f8f"> </tspan>
      <tspan x="17.140387" y="-0.484375" style="font-size: 10.8px; font-family: 'STIXGeneral'; fill: #2f6f8f">f</tspan>
      <tspan x="20.720129" y="-0.484375" style="font-size: 10.8px; font-family: 'STIXGeneral'; fill: #2f6f8f">i</tspan>
      <tspan x="23.708624" y="-0.484375" style="font-size: 10.8px; font-family: 'STIXGeneral'; fill: #2f6f8f">n</tspan>
      <tspan x="29.083609" y="-0.484375" style="font-size: 10.8px; font-family: 'STIXGeneral'; fill: #2f6f8f">i</tspan>
      <tspan x="32.072104" y="-0.484375" style="font-size: 10.8px; font-family: 'STIXGeneral'; fill: #2f6f8f">t</tspan>
      <tspan x="35.060599" y="-0.484375" style="font-size: 10.8px; font-family: 'STIXGeneral'; fill: #2f6f8f">e</tspan>
     </text>
    </g>
   </g>
   <g id="text_9">
    <text style="font-weight: 700; font-size: 12.2px; font-family: 'STIX Two Text', 'STIXGeneral', 'DejaVu Serif', serif; text-anchor: start; fill: #2f6f8f" x="495.756" y="136.656" transform="rotate(-0 495.756 136.656)">finite stopband</text>
   </g>
   <g id="text_10">
    <text style="font-weight: 700; font-size: 15px; font-family: 'STIX Two Text', 'STIXGeneral', 'DejaVu Serif', serif; text-anchor: start; fill: #bf654f" x="27.036" y="259.384031" transform="rotate(-0 27.036 259.384031)">TM</text>
   </g>
   <g id="text_11">
    <!-- at Brewster incidence: $r_{\rm TM}=0$ at every interface -->
    <g style="fill: #bf654f" transform="translate(179.37 199.3032)">
     <text>
      <tspan x="0" y="-0.484375" style="font-size: 11.3px; font-family: 'STIXGeneral'; fill: #bf654f">a</tspan>
      <tspan x="4.994995" y="-0.484375" style="font-size: 11.3px; font-family: 'STIXGeneral'; fill: #bf654f">t</tspan>
      <tspan x="8.122482" y="-0.484375" style="font-size: 11.3px; font-family: 'STIXGeneral'; fill: #bf654f"> </tspan>
      <tspan x="10.934967" y="-0.484375" style="font-size: 11.3px; font-family: 'STIXGeneral'; fill: #bf654f">B</tspan>
      <tspan x="18.438705" y="-0.484375" style="font-size: 11.3px; font-family: 'STIXGeneral'; fill: #bf654f">r</tspan>
      <tspan x="22.184952" y="-0.484375" style="font-size: 11.3px; font-family: 'STIXGeneral'; fill: #bf654f">e</tspan>
      <tspan x="27.179947" y="-0.484375" style="font-size: 11.3px; font-family: 'STIXGeneral'; fill: #bf654f">w</tspan>
      <tspan x="35.302429" y="-0.484375" style="font-size: 11.3px; font-family: 'STIXGeneral'; fill: #bf654f">s</tspan>
      <tspan x="39.678665" y="-0.484375" style="font-size: 11.3px; font-family: 'STIXGeneral'; fill: #bf654f">t</tspan>
      <tspan x="42.806152" y="-0.484375" style="font-size: 11.3px; font-family: 'STIXGeneral'; fill: #bf654f">e</tspan>
      <tspan x="47.801147" y="-0.484375" style="font-size: 11.3px; font-family: 'STIXGeneral'; fill: #bf654f">r</tspan>
      <tspan x="51.547394" y="-0.484375" style="font-size: 11.3px; font-family: 'STIXGeneral'; fill: #bf654f"> </tspan>
      <tspan x="54.359879" y="-0.484375" style="font-size: 11.3px; font-family: 'STIXGeneral'; fill: #bf654f">i</tspan>
      <tspan x="57.487366" y="-0.484375" style="font-size: 11.3px; font-family: 'STIXGeneral'; fill: #bf654f">n</tspan>
      <tspan x="63.11235" y="-0.484375" style="font-size: 11.3px; font-family: 'STIXGeneral'; fill: #bf654f">c</tspan>
      <tspan x="68.107346" y="-0.484375" style="font-size: 11.3px; font-family: 'STIXGeneral'; fill: #bf654f">i</tspan>
      <tspan x="71.234833" y="-0.484375" style="font-size: 11.3px; font-family: 'STIXGeneral'; fill: #bf654f">d</tspan>
      <tspan x="76.859818" y="-0.484375" style="font-size: 11.3px; font-family: 'STIXGeneral'; fill: #bf654f">e</tspan>
      <tspan x="81.854813" y="-0.484375" style="font-size: 11.3px; font-family: 'STIXGeneral'; fill: #bf654f">n</tspan>
      <tspan x="87.479797" y="-0.484375" style="font-size: 11.3px; font-family: 'STIXGeneral'; fill: #bf654f">c</tspan>
      <tspan x="92.474792" y="-0.484375" style="font-size: 11.3px; font-family: 'STIXGeneral'; fill: #bf654f">e</tspan>
      <tspan x="97.469788" y="-0.484375" style="font-size: 11.3px; font-family: 'STIXGeneral'; fill: #bf654f">:</tspan>
      <tspan x="100.597275" y="-0.484375" style="font-size: 11.3px; font-family: 'STIXGeneral'; fill: #bf654f"> </tspan>
      <tspan x="121.707346" y="-0.484375" style="font-size: 11.3px; font-family: 'STIXGeneral'; fill: #bf654f">=</tspan>
      <tspan x="131.03808" y="-0.484375" style="font-size: 11.3px; font-family: 'STIXGeneral'; fill: #bf654f">0</tspan>
      <tspan x="136.663065" y="-0.484375" style="font-size: 11.3px; font-family: 'STIXGeneral'; fill: #bf654f"> </tspan>
      <tspan x="139.475549" y="-0.484375" style="font-size: 11.3px; font-family: 'STIXGeneral'; fill: #bf654f">a</tspan>
      <tspan x="144.470544" y="-0.484375" style="font-size: 11.3px; font-family: 'STIXGeneral'; fill: #bf654f">t</tspan>
      <tspan x="147.598032" y="-0.484375" style="font-size: 11.3px; font-family: 'STIXGeneral'; fill: #bf654f"> </tspan>
      <tspan x="150.410516" y="-0.484375" style="font-size: 11.3px; font-family: 'STIXGeneral'; fill: #bf654f">e</tspan>
      <tspan x="155.405511" y="-0.484375" style="font-size: 11.3px; font-family: 'STIXGeneral'; fill: #bf654f">v</tspan>
      <tspan x="161.030496" y="-0.484375" style="font-size: 11.3px; font-family: 'STIXGeneral'; fill: #bf654f">e</tspan>
      <tspan x="166.025491" y="-0.484375" style="font-size: 11.3px; font-family: 'STIXGeneral'; fill: #bf654f">r</tspan>
      <tspan x="169.771738" y="-0.484375" style="font-size: 11.3px; font-family: 'STIXGeneral'; fill: #bf654f">y</tspan>
      <tspan x="175.396722" y="-0.484375" style="font-size: 11.3px; font-family: 'STIXGeneral'; fill: #bf654f"> </tspan>
      <tspan x="178.209207" y="-0.484375" style="font-size: 11.3px; font-family: 'STIXGeneral'; fill: #bf654f">i</tspan>
      <tspan x="181.336694" y="-0.484375" style="font-size: 11.3px; font-family: 'STIXGeneral'; fill: #bf654f">n</tspan>
      <tspan x="186.961679" y="-0.484375" style="font-size: 11.3px; font-family: 'STIXGeneral'; fill: #bf654f">t</tspan>
      <tspan x="190.089166" y="-0.484375" style="font-size: 11.3px; font-family: 'STIXGeneral'; fill: #bf654f">e</tspan>
      <tspan x="195.084161" y="-0.484375" style="font-size: 11.3px; font-family: 'STIXGeneral'; fill: #bf654f">r</tspan>
      <tspan x="198.830408" y="-0.484375" style="font-size: 11.3px; font-family: 'STIXGeneral'; fill: #bf654f">f</tspan>
      <tspan x="202.576654" y="-0.484375" style="font-size: 11.3px; font-family: 'STIXGeneral'; fill: #bf654f">a</tspan>
      <tspan x="207.571649" y="-0.484375" style="font-size: 11.3px; font-family: 'STIXGeneral'; fill: #bf654f">c</tspan>
      <tspan x="212.566644" y="-0.484375" style="font-size: 11.3px; font-family: 'STIXGeneral'; fill: #bf654f">e</tspan>
      <tspan x="103.40976" y="-0.484375" style="font-style: italic; font-size: 11.3px; font-family: 'STIXGeneral'; fill: #bf654f">r</tspan>
      <tspan x="107.785995" y="0.96875" style="font-size: 7.91px; font-family: 'STIXGeneral'; fill: #bf654f">T</tspan>
      <tspan x="112.597609" y="0.96875" style="font-size: 7.91px; font-family: 'STIXGeneral'; fill: #bf654f">M</tspan>
     </text>
    </g>
   </g>
   <g id="text_12">
    <text style="font-size: 10.8px; font-family: 'STIX Two Text', 'STIXGeneral', 'DejaVu Serif', serif; text-anchor: start; fill: #66717a" x="46.566" y="222.588" transform="rotate(-0 46.566 222.588)">no backward build-up</text>
   </g>
   <g id="text_13">
    <text style="font-size: 10.8px; font-family: 'STIX Two Text', 'STIXGeneral', 'DejaVu Serif', serif; text-anchor: start; fill: #bf654f" x="487.944" y="297.9864" transform="rotate(-0 487.944 297.9864)">strong transmission</text>
   </g>
   <g id="text_14">
    <!-- $F$ -->
    <g style="fill: #1d2329" transform="translate(482.364 213.7176)">
     <text>
      <tspan x="0" y="-0.859375" style="font-style: italic; font-size: 14px; font-family: 'STIXGeneral'; fill: #1d2329">F</tspan>
     </text>
    </g>
   </g>
   <g id="text_15">
    <!-- $B$ -->
    <g style="fill: #1d2329" transform="translate(585.036 213.7176)">
     <text>
      <tspan x="0" y="-0.859375" style="font-style: italic; font-size: 14px; font-family: 'STIXGeneral'; fill: #1d2329">B</tspan>
     </text>
    </g>
   </g>
   <g id="text_16">
    <!-- $\kappa_{\rm TM}\rightarrow0$ -->
    <g style="fill: #bf654f" transform="translate(517.212 195.9768)">
     <text>
      <tspan x="0" y="-0.5625" style="font-style: italic; font-size: 10.8px; font-family: 'STIXGeneral'; fill: #bf654f">κ</tspan>
      <tspan x="4.772995" y="0.890625" style="font-size: 7.56px; font-family: 'STIXGeneral'; fill: #bf654f">T</tspan>
      <tspan x="9.370761" y="0.890625" style="font-size: 7.56px; font-family: 'STIXGeneral'; fill: #bf654f">M</tspan>
      <tspan x="18.097147" y="-0.5625" style="font-size: 10.8px; font-family: 'STIXGeneral'; fill: #bf654f">→</tspan>
      <tspan x="29.603928" y="-0.5625" style="font-size: 10.8px; font-family: 'STIXGeneral'; fill: #bf654f">0</tspan>
     </text>
    </g>
   </g>
   <g id="text_17">
    <text style="font-weight: 700; font-size: 12.2px; font-family: 'STIX Two Text', 'STIXGeneral', 'DejaVu Serif', serif; text-anchor: start; fill: #bf654f" x="495.756" y="277.4736" transform="rotate(-0 495.756 277.4736)">TM stopband closes</text>
   </g>
  </g>
 </g>
 <defs>
  <clipPath id="pd48fc0546c">
   <rect x="3.6" y="3.6" width="624.96" height="338.184"/>
  </clipPath>
 </defs>
 <defs>
  <pattern id="h6b7e676382" patternUnits="userSpaceOnUse" x="0" y="0" width="72" height="72">
   <rect x="0" y="0" width="73" height="73" fill="#ffffff"/>
   <path d="M -36 36 
L 36 -36 
M -32 40 
L 40 -32 
M -28 44 
L 44 -28 
M -24 48 
L 48 -24 
M -20 52 
L 52 -20 
M -16 56 
L 56 -16 
M -12 60 
L 60 -12 
M -8 64 
L 64 -8 
M -4 68 
L 68 -4 
M 0 72 
L 72 0 
M 4 76 
L 76 4 
M 8 80 
L 80 8 
M 12 84 
L 84 12 
M 16 88 
L 88 16 
M 20 92 
L 92 20 
M 24 96 
L 96 24 
M 28 100 
L 100 28 
M 32 104 
L 104 32 
M 36 108 
L 108 36 
" style="fill: #c9ced3; stroke: #c9ced3; stroke-width: 1.0; stroke-linecap: butt; stroke-linejoin: miter"/>
  </pattern>
 </defs>
</svg>
